<svg width="652" height="414" viewBox="0 0 652 414" fill="none" xmlns="http://www.w3.org/2000/svg">
<g clip-path="url(#clip0_0_386)">
<rect width="652" height="414" rx="30" transform="matrix(1 0 0 -1 0 414)" fill="#2A0A0A"/>
<rect x="45" y="45" width="87" height="70" rx="8" fill="#7E6A78"/>
<path d="M62.5933 53.9874C62.5933 53.9874 74.3221 49.1466 74.3221 60.9018C74.3221 72.6571 61.29 68.5077 61.29 68.5077M61.29 68.5077H45M61.29 68.5077V85.7938M61.29 85.7938H45M61.29 85.7938C61.29 85.7938 78.2317 85.7938 76.9285 96.8569C75.6253 107.92 65.8513 105.846 65.8513 105.846" stroke="white" stroke-width="4"/>
<path d="M113.83 100.943C113.83 100.943 101.756 105.965 101.553 94.2996C101.351 82.6341 114.93 86.5094 114.93 86.5094M114.93 86.5094L131.814 86.2063M114.93 86.5094L114.632 69.3552M114.632 69.3552L131.516 69.0521M114.632 69.3552C114.632 69.3552 97.0715 69.6703 98.2314 58.6674C99.3913 47.6645 109.558 49.5412 109.558 49.5412" stroke="white" stroke-width="4"/>
<path d="M48.1605 273.636H57.642L67.6562 298.068H68.0824L78.0966 273.636H87.5781V310H80.1207V286.332H79.8189L70.4084 309.822H65.3303L55.9197 286.243H55.6179V310H48.1605V273.636ZM101.547 310.515C99.8074 310.515 98.2567 310.213 96.8954 309.609C95.5342 308.994 94.457 308.088 93.6639 306.893C92.8826 305.685 92.492 304.182 92.492 302.383C92.492 300.868 92.7702 299.595 93.3265 298.565C93.8829 297.536 94.6404 296.707 95.5993 296.08C96.5581 295.452 97.6471 294.979 98.8663 294.659C100.097 294.339 101.388 294.115 102.737 293.984C104.323 293.819 105.602 293.665 106.572 293.523C107.543 293.369 108.247 293.144 108.685 292.848C109.123 292.552 109.342 292.114 109.342 291.534V291.428C109.342 290.303 108.987 289.433 108.277 288.817C107.578 288.202 106.584 287.894 105.294 287.894C103.933 287.894 102.849 288.196 102.045 288.8C101.24 289.392 100.707 290.137 100.447 291.037L93.4508 290.469C93.8059 288.812 94.5043 287.379 95.546 286.172C96.5877 284.953 97.9312 284.018 99.5765 283.366C101.234 282.704 103.151 282.372 105.329 282.372C106.845 282.372 108.295 282.55 109.68 282.905C111.076 283.26 112.313 283.81 113.39 284.556C114.479 285.302 115.338 286.261 115.965 287.433C116.592 288.593 116.906 289.983 116.906 291.605V310H109.733V306.218H109.52C109.082 307.07 108.496 307.822 107.762 308.473C107.028 309.112 106.146 309.615 105.116 309.982C104.086 310.337 102.897 310.515 101.547 310.515ZM103.714 305.295C104.826 305.295 105.809 305.076 106.661 304.638C107.513 304.188 108.182 303.584 108.667 302.827C109.153 302.069 109.395 301.211 109.395 300.252V297.358C109.159 297.512 108.833 297.654 108.419 297.784C108.016 297.902 107.561 298.015 107.052 298.121C106.543 298.216 106.034 298.305 105.525 298.388C105.016 298.459 104.554 298.524 104.14 298.583C103.252 298.713 102.477 298.92 101.814 299.205C101.151 299.489 100.636 299.873 100.269 300.359C99.902 300.832 99.7186 301.424 99.7186 302.134C99.7186 303.164 100.091 303.951 100.837 304.496C101.595 305.028 102.554 305.295 103.714 305.295ZM145.466 290.504L138.541 290.93C138.423 290.339 138.169 289.806 137.778 289.332C137.387 288.847 136.872 288.462 136.233 288.178C135.606 287.882 134.854 287.734 133.978 287.734C132.806 287.734 131.818 287.983 131.013 288.48C130.208 288.965 129.806 289.616 129.806 290.433C129.806 291.084 130.066 291.635 130.587 292.085C131.108 292.534 132.001 292.895 133.268 293.168L138.204 294.162C140.856 294.706 142.832 295.582 144.134 296.79C145.436 297.997 146.088 299.583 146.088 301.548C146.088 303.336 145.561 304.904 144.507 306.254C143.466 307.603 142.033 308.656 140.21 309.414C138.399 310.16 136.31 310.533 133.943 310.533C130.332 310.533 127.456 309.781 125.313 308.278C123.183 306.763 121.934 304.703 121.567 302.099L129.007 301.708C129.231 302.809 129.776 303.649 130.64 304.229C131.504 304.798 132.611 305.082 133.96 305.082C135.286 305.082 136.352 304.827 137.156 304.318C137.973 303.797 138.387 303.129 138.399 302.312C138.387 301.625 138.097 301.063 137.529 300.625C136.961 300.175 136.085 299.832 134.901 299.595L130.178 298.654C127.515 298.121 125.532 297.198 124.23 295.884C122.94 294.57 122.295 292.895 122.295 290.859C122.295 289.107 122.768 287.598 123.715 286.332C124.674 285.065 126.018 284.089 127.746 283.402C129.486 282.715 131.522 282.372 133.854 282.372C137.298 282.372 140.009 283.1 141.986 284.556C143.975 286.012 145.135 287.995 145.466 290.504ZM165.357 282.727V288.409H148.933V282.727H165.357ZM152.662 276.193H160.225V301.619C160.225 302.318 160.332 302.862 160.545 303.253C160.758 303.632 161.054 303.898 161.433 304.052C161.824 304.206 162.273 304.283 162.782 304.283C163.137 304.283 163.493 304.253 163.848 304.194C164.203 304.123 164.475 304.07 164.664 304.034L165.854 309.663C165.475 309.781 164.943 309.917 164.256 310.071C163.569 310.237 162.735 310.337 161.752 310.373C159.93 310.444 158.332 310.201 156.958 309.645C155.597 309.089 154.538 308.224 153.78 307.053C153.023 305.881 152.65 304.401 152.662 302.614V276.193ZM182.42 310.533C179.615 310.533 177.2 309.964 175.176 308.828C173.163 307.68 171.613 306.058 170.524 303.963C169.435 301.856 168.89 299.364 168.89 296.488C168.89 293.683 169.435 291.22 170.524 289.102C171.613 286.983 173.146 285.331 175.123 284.148C177.111 282.964 179.443 282.372 182.118 282.372C183.917 282.372 185.592 282.662 187.143 283.242C188.706 283.81 190.067 284.669 191.227 285.817C192.399 286.965 193.31 288.409 193.961 290.149C194.612 291.877 194.938 293.902 194.938 296.222V298.299H171.909V293.612H187.818C187.818 292.522 187.581 291.558 187.108 290.717C186.634 289.877 185.977 289.22 185.137 288.746C184.308 288.261 183.343 288.018 182.243 288.018C181.094 288.018 180.076 288.285 179.189 288.817C178.313 289.338 177.626 290.043 177.129 290.93C176.632 291.806 176.377 292.783 176.365 293.86V298.317C176.365 299.666 176.614 300.832 177.111 301.815C177.62 302.797 178.336 303.555 179.26 304.087C180.183 304.62 181.278 304.886 182.544 304.886C183.385 304.886 184.154 304.768 184.853 304.531C185.551 304.295 186.149 303.939 186.646 303.466C187.143 302.992 187.522 302.412 187.782 301.726L194.778 302.188C194.423 303.868 193.695 305.336 192.594 306.591C191.505 307.834 190.096 308.804 188.368 309.503C186.652 310.189 184.669 310.533 182.42 310.533ZM199.874 310V282.727H207.207V287.486H207.491C207.988 285.793 208.823 284.515 209.995 283.651C211.167 282.775 212.516 282.337 214.043 282.337C214.422 282.337 214.83 282.36 215.268 282.408C215.706 282.455 216.091 282.52 216.422 282.603V289.315C216.067 289.208 215.576 289.113 214.949 289.031C214.321 288.948 213.747 288.906 213.226 288.906C212.114 288.906 211.119 289.149 210.243 289.634C209.379 290.108 208.693 290.771 208.184 291.623C207.686 292.475 207.438 293.458 207.438 294.57V310H199.874ZM252.559 286.367H244.782C244.64 285.361 244.35 284.467 243.912 283.686C243.474 282.893 242.912 282.218 242.226 281.662C241.539 281.106 240.746 280.679 239.846 280.384C238.959 280.088 237.994 279.94 236.952 279.94C235.07 279.94 233.431 280.407 232.034 281.342C230.637 282.266 229.554 283.615 228.785 285.391C228.015 287.154 227.631 289.297 227.631 291.818C227.631 294.411 228.015 296.589 228.785 298.352C229.566 300.116 230.655 301.448 232.052 302.347C233.448 303.247 235.064 303.697 236.899 303.697C237.929 303.697 238.882 303.561 239.758 303.288C240.645 303.016 241.433 302.62 242.119 302.099C242.806 301.566 243.374 300.921 243.824 300.163C244.285 299.406 244.605 298.542 244.782 297.571L252.559 297.607C252.358 299.276 251.855 300.885 251.05 302.436C250.257 303.975 249.186 305.354 247.836 306.573C246.499 307.781 244.901 308.739 243.042 309.45C241.196 310.148 239.107 310.497 236.775 310.497C233.531 310.497 230.631 309.763 228.074 308.295C225.529 306.828 223.517 304.703 222.037 301.921C220.57 299.139 219.836 295.772 219.836 291.818C219.836 287.853 220.581 284.479 222.073 281.697C223.564 278.916 225.589 276.797 228.145 275.341C230.702 273.873 233.579 273.139 236.775 273.139C238.882 273.139 240.835 273.435 242.634 274.027C244.445 274.619 246.049 275.483 247.446 276.619C248.843 277.744 249.979 279.123 250.855 280.756C251.743 282.39 252.311 284.26 252.559 286.367ZM265.708 310.515C263.968 310.515 262.417 310.213 261.056 309.609C259.694 308.994 258.617 308.088 257.824 306.893C257.043 305.685 256.652 304.182 256.652 302.383C256.652 300.868 256.93 299.595 257.487 298.565C258.043 297.536 258.801 296.707 259.759 296.08C260.718 295.452 261.807 294.979 263.026 294.659C264.258 294.339 265.548 294.115 266.897 293.984C268.483 293.819 269.762 293.665 270.732 293.523C271.703 293.369 272.407 293.144 272.845 292.848C273.283 292.552 273.502 292.114 273.502 291.534V291.428C273.502 290.303 273.147 289.433 272.437 288.817C271.739 288.202 270.744 287.894 269.454 287.894C268.093 287.894 267.01 288.196 266.205 288.8C265.4 289.392 264.867 290.137 264.607 291.037L257.611 290.469C257.966 288.812 258.664 287.379 259.706 286.172C260.748 284.953 262.091 284.018 263.737 283.366C265.394 282.704 267.311 282.372 269.49 282.372C271.005 282.372 272.455 282.55 273.84 282.905C275.236 283.26 276.473 283.81 277.551 284.556C278.64 285.302 279.498 286.261 280.125 287.433C280.753 288.593 281.066 289.983 281.066 291.605V310H273.893V306.218H273.68C273.242 307.07 272.656 307.822 271.922 308.473C271.188 309.112 270.306 309.615 269.276 309.982C268.247 310.337 267.057 310.515 265.708 310.515ZM267.874 305.295C268.986 305.295 269.969 305.076 270.821 304.638C271.673 304.188 272.342 303.584 272.828 302.827C273.313 302.069 273.556 301.211 273.556 300.252V297.358C273.319 297.512 272.993 297.654 272.579 297.784C272.177 297.902 271.721 298.015 271.212 298.121C270.703 298.216 270.194 298.305 269.685 298.388C269.176 298.459 268.714 298.524 268.3 298.583C267.412 298.713 266.637 298.92 265.974 299.205C265.311 299.489 264.796 299.873 264.429 300.359C264.062 300.832 263.879 301.424 263.879 302.134C263.879 303.164 264.252 303.951 264.997 304.496C265.755 305.028 266.714 305.295 267.874 305.295ZM286.934 310V282.727H294.268V287.486H294.552C295.049 285.793 295.883 284.515 297.055 283.651C298.227 282.775 299.577 282.337 301.104 282.337C301.482 282.337 301.891 282.36 302.329 282.408C302.767 282.455 303.151 282.52 303.483 282.603V289.315C303.128 289.208 302.636 289.113 302.009 289.031C301.382 288.948 300.808 288.906 300.287 288.906C299.174 288.906 298.18 289.149 297.304 289.634C296.44 290.108 295.753 290.771 295.244 291.623C294.747 292.475 294.498 293.458 294.498 294.57V310H286.934ZM316.174 310.444C314.102 310.444 312.226 309.911 310.545 308.846C308.876 307.769 307.55 306.188 306.568 304.105C305.597 302.01 305.112 299.441 305.112 296.399C305.112 293.274 305.615 290.676 306.621 288.604C307.627 286.521 308.965 284.964 310.634 283.935C312.315 282.893 314.155 282.372 316.156 282.372C317.683 282.372 318.955 282.633 319.973 283.153C321.003 283.662 321.832 284.302 322.459 285.071C323.098 285.829 323.584 286.574 323.915 287.308H324.146V273.636H331.692V310H324.235V305.632H323.915C323.56 306.39 323.057 307.141 322.406 307.887C321.767 308.621 320.932 309.231 319.902 309.716C318.884 310.201 317.641 310.444 316.174 310.444ZM318.571 304.425C319.79 304.425 320.82 304.093 321.66 303.43C322.512 302.756 323.163 301.815 323.613 300.607C324.075 299.4 324.306 297.985 324.306 296.364C324.306 294.742 324.081 293.333 323.631 292.138C323.181 290.942 322.53 290.019 321.678 289.368C320.826 288.717 319.79 288.391 318.571 288.391C317.328 288.391 316.28 288.729 315.428 289.403C314.576 290.078 313.931 291.013 313.493 292.209C313.055 293.404 312.836 294.789 312.836 296.364C312.836 297.95 313.055 299.353 313.493 300.572C313.942 301.779 314.587 302.726 315.428 303.413C316.28 304.087 317.328 304.425 318.571 304.425Z" fill="#DCD6EA"/>
<path d="M55.2727 361.318C53.7727 361.318 52.4356 361.061 51.2614 360.545C50.0947 360.03 49.1667 359.314 48.4773 358.398C47.7955 357.473 47.4242 356.402 47.3636 355.182H50.2273C50.2879 355.932 50.5455 356.58 51 357.125C51.4545 357.663 52.0492 358.08 52.7841 358.375C53.5189 358.67 54.3333 358.818 55.2273 358.818C56.2273 358.818 57.1136 358.644 57.8864 358.295C58.6591 357.947 59.2652 357.462 59.7045 356.841C60.1439 356.22 60.3636 355.5 60.3636 354.682C60.3636 353.826 60.1515 353.072 59.7273 352.42C59.303 351.761 58.6818 351.246 57.8636 350.875C57.0455 350.504 56.0455 350.318 54.8636 350.318H53V347.818H54.8636C55.7879 347.818 56.5985 347.652 57.2955 347.318C58 346.985 58.5492 346.515 58.9432 345.909C59.3447 345.303 59.5455 344.591 59.5455 343.773C59.5455 342.985 59.3712 342.299 59.0227 341.716C58.6742 341.133 58.1818 340.678 57.5455 340.352C56.9167 340.027 56.1742 339.864 55.3182 339.864C54.5152 339.864 53.7576 340.011 53.0455 340.307C52.3409 340.595 51.7652 341.015 51.3182 341.568C50.8712 342.114 50.6288 342.773 50.5909 343.545H47.8636C47.9091 342.326 48.2765 341.258 48.9659 340.341C49.6553 339.417 50.5568 338.697 51.6705 338.182C52.7917 337.667 54.0227 337.409 55.3636 337.409C56.803 337.409 58.0379 337.701 59.0682 338.284C60.0985 338.86 60.8902 339.621 61.4432 340.568C61.9962 341.515 62.2727 342.538 62.2727 343.636C62.2727 344.947 61.928 346.064 61.2386 346.989C60.5568 347.913 59.6288 348.553 58.4545 348.909V349.091C59.9242 349.333 61.072 349.958 61.8977 350.966C62.7235 351.966 63.1364 353.205 63.1364 354.682C63.1364 355.947 62.7917 357.083 62.1023 358.091C61.4205 359.091 60.4886 359.879 59.3068 360.455C58.125 361.03 56.7803 361.318 55.2727 361.318ZM67.2386 356.227V353.909L77.4659 337.727H79.1477V341.318H78.0114L70.2841 353.545V353.727H84.0568V356.227H67.2386ZM78.1932 361V355.523V354.443V337.727H80.875V361H78.1932ZM95.7699 361.318C94.2093 361.318 92.8305 361.042 91.6335 360.489C90.4441 359.928 89.5161 359.159 88.8494 358.182C88.1828 357.197 87.8532 356.076 87.8608 354.818C87.8532 353.833 88.0464 352.924 88.4403 352.091C88.8343 351.25 89.3722 350.549 90.054 349.989C90.7434 349.42 91.5123 349.061 92.3608 348.909V348.773C91.2472 348.485 90.3608 347.86 89.7017 346.898C89.0426 345.928 88.7169 344.826 88.7244 343.591C88.7169 342.409 89.0161 341.352 89.6222 340.42C90.2282 339.489 91.0616 338.754 92.1222 338.216C93.1903 337.678 94.4063 337.409 95.7699 337.409C97.1184 337.409 98.3229 337.678 99.3835 338.216C100.444 338.754 101.277 339.489 101.884 340.42C102.497 341.352 102.808 342.409 102.815 343.591C102.808 344.826 102.471 345.928 101.804 346.898C101.145 347.86 100.27 348.485 99.179 348.773V348.909C100.02 349.061 100.777 349.42 101.452 349.989C102.126 350.549 102.664 351.25 103.065 352.091C103.467 352.924 103.671 353.833 103.679 354.818C103.671 356.076 103.33 357.197 102.656 358.182C101.99 359.159 101.062 359.928 99.8722 360.489C98.6903 361.042 97.3229 361.318 95.7699 361.318ZM95.7699 358.818C96.8229 358.818 97.732 358.648 98.4972 358.307C99.2623 357.966 99.8532 357.485 100.27 356.864C100.687 356.242 100.899 355.515 100.906 354.682C100.899 353.803 100.671 353.027 100.224 352.352C99.7775 351.678 99.1676 351.148 98.3949 350.761C97.6297 350.375 96.7547 350.182 95.7699 350.182C94.7775 350.182 93.8911 350.375 93.1108 350.761C92.3381 351.148 91.7282 351.678 91.2812 352.352C90.8419 353.027 90.6259 353.803 90.6335 354.682C90.6259 355.515 90.8267 356.242 91.2358 356.864C91.6525 357.485 92.2472 357.966 93.0199 358.307C93.7926 358.648 94.7093 358.818 95.7699 358.818ZM95.7699 347.773C96.6032 347.773 97.3419 347.606 97.9858 347.273C98.6373 346.939 99.1487 346.473 99.5199 345.875C99.8911 345.277 100.08 344.576 100.088 343.773C100.08 342.985 99.8949 342.299 99.5312 341.716C99.1676 341.125 98.6638 340.67 98.0199 340.352C97.3759 340.027 96.6259 339.864 95.7699 339.864C94.8987 339.864 94.1373 340.027 93.4858 340.352C92.8343 340.67 92.3305 341.125 91.9744 341.716C91.6184 342.299 91.4441 342.985 91.4517 343.773C91.4441 344.576 91.6222 345.277 91.9858 345.875C92.357 346.473 92.8684 346.939 93.5199 347.273C94.1714 347.606 94.9214 347.773 95.7699 347.773ZM108.034 361V358.955L115.716 350.545C116.617 349.561 117.36 348.705 117.943 347.977C118.527 347.242 118.958 346.553 119.239 345.909C119.527 345.258 119.67 344.576 119.67 343.864C119.67 343.045 119.473 342.337 119.08 341.739C118.693 341.14 118.163 340.678 117.489 340.352C116.814 340.027 116.057 339.864 115.216 339.864C114.322 339.864 113.542 340.049 112.875 340.42C112.216 340.784 111.705 341.295 111.341 341.955C110.985 342.614 110.807 343.386 110.807 344.273H108.125C108.125 342.909 108.439 341.712 109.068 340.682C109.697 339.652 110.553 338.848 111.636 338.273C112.727 337.697 113.951 337.409 115.307 337.409C116.67 337.409 117.879 337.697 118.932 338.273C119.985 338.848 120.811 339.625 121.409 340.602C122.008 341.58 122.307 342.667 122.307 343.864C122.307 344.72 122.152 345.557 121.841 346.375C121.538 347.186 121.008 348.091 120.25 349.091C119.5 350.083 118.458 351.295 117.125 352.727L111.898 358.318V358.5H122.716V361H108.034ZM143.864 361.318C142.303 361.318 140.924 361.042 139.727 360.489C138.538 359.928 137.61 359.159 136.943 358.182C136.277 357.197 135.947 356.076 135.955 354.818C135.947 353.833 136.14 352.924 136.534 352.091C136.928 351.25 137.466 350.549 138.148 349.989C138.837 349.42 139.606 349.061 140.455 348.909V348.773C139.341 348.485 138.455 347.86 137.795 346.898C137.136 345.928 136.811 344.826 136.818 343.591C136.811 342.409 137.11 341.352 137.716 340.42C138.322 339.489 139.155 338.754 140.216 338.216C141.284 337.678 142.5 337.409 143.864 337.409C145.212 337.409 146.417 337.678 147.477 338.216C148.538 338.754 149.371 339.489 149.977 340.42C150.591 341.352 150.902 342.409 150.909 343.591C150.902 344.826 150.564 345.928 149.898 346.898C149.239 347.86 148.364 348.485 147.273 348.773V348.909C148.114 349.061 148.871 349.42 149.545 349.989C150.22 350.549 150.758 351.25 151.159 352.091C151.561 352.924 151.765 353.833 151.773 354.818C151.765 356.076 151.424 357.197 150.75 358.182C150.083 359.159 149.155 359.928 147.966 360.489C146.784 361.042 145.417 361.318 143.864 361.318ZM143.864 358.818C144.917 358.818 145.826 358.648 146.591 358.307C147.356 357.966 147.947 357.485 148.364 356.864C148.78 356.242 148.992 355.515 149 354.682C148.992 353.803 148.765 353.027 148.318 352.352C147.871 351.678 147.261 351.148 146.489 350.761C145.723 350.375 144.848 350.182 143.864 350.182C142.871 350.182 141.985 350.375 141.205 350.761C140.432 351.148 139.822 351.678 139.375 352.352C138.936 353.027 138.72 353.803 138.727 354.682C138.72 355.515 138.92 356.242 139.33 356.864C139.746 357.485 140.341 357.966 141.114 358.307C141.886 358.648 142.803 358.818 143.864 358.818ZM143.864 347.773C144.697 347.773 145.436 347.606 146.08 347.273C146.731 346.939 147.242 346.473 147.614 345.875C147.985 345.277 148.174 344.576 148.182 343.773C148.174 342.985 147.989 342.299 147.625 341.716C147.261 341.125 146.758 340.67 146.114 340.352C145.47 340.027 144.72 339.864 143.864 339.864C142.992 339.864 142.231 340.027 141.58 340.352C140.928 340.67 140.424 341.125 140.068 341.716C139.712 342.299 139.538 342.985 139.545 343.773C139.538 344.576 139.716 345.277 140.08 345.875C140.451 346.473 140.962 346.939 141.614 347.273C142.265 347.606 143.015 347.773 143.864 347.773ZM163.991 361.318C162.491 361.318 161.154 361.061 159.98 360.545C158.813 360.03 157.885 359.314 157.196 358.398C156.514 357.473 156.143 356.402 156.082 355.182H158.946C159.007 355.932 159.264 356.58 159.719 357.125C160.173 357.663 160.768 358.08 161.503 358.375C162.238 358.67 163.052 358.818 163.946 358.818C164.946 358.818 165.832 358.644 166.605 358.295C167.378 357.947 167.984 357.462 168.423 356.841C168.863 356.22 169.082 355.5 169.082 354.682C169.082 353.826 168.87 353.072 168.446 352.42C168.022 351.761 167.401 351.246 166.582 350.875C165.764 350.504 164.764 350.318 163.582 350.318H161.719V347.818H163.582C164.507 347.818 165.317 347.652 166.014 347.318C166.719 346.985 167.268 346.515 167.662 345.909C168.063 345.303 168.264 344.591 168.264 343.773C168.264 342.985 168.09 342.299 167.741 341.716C167.393 341.133 166.901 340.678 166.264 340.352C165.635 340.027 164.893 339.864 164.037 339.864C163.234 339.864 162.476 340.011 161.764 340.307C161.06 340.595 160.484 341.015 160.037 341.568C159.59 342.114 159.348 342.773 159.31 343.545H156.582C156.628 342.326 156.995 341.258 157.685 340.341C158.374 339.417 159.276 338.697 160.389 338.182C161.51 337.667 162.741 337.409 164.082 337.409C165.522 337.409 166.757 337.701 167.787 338.284C168.817 338.86 169.609 339.621 170.162 340.568C170.715 341.515 170.991 342.538 170.991 343.636C170.991 344.947 170.647 346.064 169.957 346.989C169.276 347.913 168.348 348.553 167.173 348.909V349.091C168.643 349.333 169.791 349.958 170.616 350.966C171.442 351.966 171.855 353.205 171.855 354.682C171.855 355.947 171.51 357.083 170.821 358.091C170.139 359.091 169.207 359.879 168.026 360.455C166.844 361.03 165.499 361.318 163.991 361.318ZM183.957 361.318C182.397 361.318 181.018 361.042 179.821 360.489C178.632 359.928 177.704 359.159 177.037 358.182C176.37 357.197 176.041 356.076 176.048 354.818C176.041 353.833 176.234 352.924 176.628 352.091C177.022 351.25 177.56 350.549 178.241 349.989C178.931 349.42 179.7 349.061 180.548 348.909V348.773C179.435 348.485 178.548 347.86 177.889 346.898C177.23 345.928 176.904 344.826 176.912 343.591C176.904 342.409 177.204 341.352 177.81 340.42C178.416 339.489 179.249 338.754 180.31 338.216C181.378 337.678 182.594 337.409 183.957 337.409C185.306 337.409 186.51 337.678 187.571 338.216C188.632 338.754 189.465 339.489 190.071 340.42C190.685 341.352 190.995 342.409 191.003 343.591C190.995 344.826 190.658 345.928 189.991 346.898C189.332 347.86 188.457 348.485 187.366 348.773V348.909C188.207 349.061 188.965 349.42 189.639 349.989C190.313 350.549 190.851 351.25 191.253 352.091C191.654 352.924 191.859 353.833 191.866 354.818C191.859 356.076 191.518 357.197 190.844 358.182C190.177 359.159 189.249 359.928 188.06 360.489C186.878 361.042 185.51 361.318 183.957 361.318ZM183.957 358.818C185.01 358.818 185.92 358.648 186.685 358.307C187.45 357.966 188.041 357.485 188.457 356.864C188.874 356.242 189.086 355.515 189.094 354.682C189.086 353.803 188.859 353.027 188.412 352.352C187.965 351.678 187.355 351.148 186.582 350.761C185.817 350.375 184.942 350.182 183.957 350.182C182.965 350.182 182.079 350.375 181.298 350.761C180.526 351.148 179.916 351.678 179.469 352.352C179.029 353.027 178.813 353.803 178.821 354.682C178.813 355.515 179.014 356.242 179.423 356.864C179.84 357.485 180.435 357.966 181.207 358.307C181.98 358.648 182.897 358.818 183.957 358.818ZM183.957 347.773C184.791 347.773 185.529 347.606 186.173 347.273C186.825 346.939 187.336 346.473 187.707 345.875C188.079 345.277 188.268 344.576 188.276 343.773C188.268 342.985 188.082 342.299 187.719 341.716C187.355 341.125 186.851 340.67 186.207 340.352C185.563 340.027 184.813 339.864 183.957 339.864C183.086 339.864 182.325 340.027 181.673 340.352C181.022 340.67 180.518 341.125 180.162 341.716C179.806 342.299 179.632 342.985 179.639 343.773C179.632 344.576 179.81 345.277 180.173 345.875C180.545 346.473 181.056 346.939 181.707 347.273C182.359 347.606 183.109 347.773 183.957 347.773ZM195.676 356.227V353.909L205.903 337.727H207.585V341.318H206.449L198.722 353.545V353.727H212.494V356.227H195.676ZM206.631 361V355.523V354.443V337.727H209.312V361H206.631ZM233.207 361.318C231.647 361.318 230.268 361.042 229.071 360.489C227.882 359.928 226.954 359.159 226.287 358.182C225.62 357.197 225.291 356.076 225.298 354.818C225.291 353.833 225.484 352.924 225.878 352.091C226.272 351.25 226.81 350.549 227.491 349.989C228.181 349.42 228.95 349.061 229.798 348.909V348.773C228.685 348.485 227.798 347.86 227.139 346.898C226.48 345.928 226.154 344.826 226.162 343.591C226.154 342.409 226.454 341.352 227.06 340.42C227.666 339.489 228.499 338.754 229.56 338.216C230.628 337.678 231.844 337.409 233.207 337.409C234.556 337.409 235.76 337.678 236.821 338.216C237.882 338.754 238.715 339.489 239.321 340.42C239.935 341.352 240.245 342.409 240.253 343.591C240.245 344.826 239.908 345.928 239.241 346.898C238.582 347.86 237.707 348.485 236.616 348.773V348.909C237.457 349.061 238.215 349.42 238.889 349.989C239.563 350.549 240.101 351.25 240.503 352.091C240.904 352.924 241.109 353.833 241.116 354.818C241.109 356.076 240.768 357.197 240.094 358.182C239.427 359.159 238.499 359.928 237.31 360.489C236.128 361.042 234.76 361.318 233.207 361.318ZM233.207 358.818C234.26 358.818 235.17 358.648 235.935 358.307C236.7 357.966 237.291 357.485 237.707 356.864C238.124 356.242 238.336 355.515 238.344 354.682C238.336 353.803 238.109 353.027 237.662 352.352C237.215 351.678 236.605 351.148 235.832 350.761C235.067 350.375 234.192 350.182 233.207 350.182C232.215 350.182 231.329 350.375 230.548 350.761C229.776 351.148 229.166 351.678 228.719 352.352C228.279 353.027 228.063 353.803 228.071 354.682C228.063 355.515 228.264 356.242 228.673 356.864C229.09 357.485 229.685 357.966 230.457 358.307C231.23 358.648 232.147 358.818 233.207 358.818ZM233.207 347.773C234.041 347.773 234.779 347.606 235.423 347.273C236.075 346.939 236.586 346.473 236.957 345.875C237.329 345.277 237.518 344.576 237.526 343.773C237.518 342.985 237.332 342.299 236.969 341.716C236.605 341.125 236.101 340.67 235.457 340.352C234.813 340.027 234.063 339.864 233.207 339.864C232.336 339.864 231.575 340.027 230.923 340.352C230.272 340.67 229.768 341.125 229.412 341.716C229.056 342.299 228.882 342.985 228.889 343.773C228.882 344.576 229.06 345.277 229.423 345.875C229.795 346.473 230.306 346.939 230.957 347.273C231.609 347.606 232.359 347.773 233.207 347.773ZM245.472 361V358.955L253.153 350.545C254.055 349.561 254.797 348.705 255.381 347.977C255.964 347.242 256.396 346.553 256.676 345.909C256.964 345.258 257.108 344.576 257.108 343.864C257.108 343.045 256.911 342.337 256.517 341.739C256.131 341.14 255.6 340.678 254.926 340.352C254.252 340.027 253.494 339.864 252.653 339.864C251.759 339.864 250.979 340.049 250.312 340.42C249.653 340.784 249.142 341.295 248.778 341.955C248.422 342.614 248.244 343.386 248.244 344.273H245.562C245.562 342.909 245.877 341.712 246.506 340.682C247.134 339.652 247.991 338.848 249.074 338.273C250.165 337.697 251.388 337.409 252.744 337.409C254.108 337.409 255.316 337.697 256.369 338.273C257.422 338.848 258.248 339.625 258.847 340.602C259.445 341.58 259.744 342.667 259.744 343.864C259.744 344.72 259.589 345.557 259.278 346.375C258.975 347.186 258.445 348.091 257.688 349.091C256.938 350.083 255.896 351.295 254.562 352.727L249.335 358.318V358.5H260.153V361H245.472ZM272.301 361.318C270.741 361.318 269.362 361.042 268.165 360.489C266.975 359.928 266.047 359.159 265.381 358.182C264.714 357.197 264.384 356.076 264.392 354.818C264.384 353.833 264.578 352.924 264.972 352.091C265.366 351.25 265.903 350.549 266.585 349.989C267.275 349.42 268.044 349.061 268.892 348.909V348.773C267.778 348.485 266.892 347.86 266.233 346.898C265.574 345.928 265.248 344.826 265.256 343.591C265.248 342.409 265.547 341.352 266.153 340.42C266.759 339.489 267.593 338.754 268.653 338.216C269.722 337.678 270.938 337.409 272.301 337.409C273.65 337.409 274.854 337.678 275.915 338.216C276.975 338.754 277.809 339.489 278.415 340.42C279.028 341.352 279.339 342.409 279.347 343.591C279.339 344.826 279.002 345.928 278.335 346.898C277.676 347.86 276.801 348.485 275.71 348.773V348.909C276.551 349.061 277.309 349.42 277.983 349.989C278.657 350.549 279.195 351.25 279.597 352.091C279.998 352.924 280.203 353.833 280.21 354.818C280.203 356.076 279.862 357.197 279.188 358.182C278.521 359.159 277.593 359.928 276.403 360.489C275.222 361.042 273.854 361.318 272.301 361.318ZM272.301 358.818C273.354 358.818 274.263 358.648 275.028 358.307C275.794 357.966 276.384 357.485 276.801 356.864C277.218 356.242 277.43 355.515 277.438 354.682C277.43 353.803 277.203 353.027 276.756 352.352C276.309 351.678 275.699 351.148 274.926 350.761C274.161 350.375 273.286 350.182 272.301 350.182C271.309 350.182 270.422 350.375 269.642 350.761C268.869 351.148 268.259 351.678 267.812 352.352C267.373 353.027 267.157 353.803 267.165 354.682C267.157 355.515 267.358 356.242 267.767 356.864C268.184 357.485 268.778 357.966 269.551 358.307C270.324 358.648 271.241 358.818 272.301 358.818ZM272.301 347.773C273.134 347.773 273.873 347.606 274.517 347.273C275.169 346.939 275.68 346.473 276.051 345.875C276.422 345.277 276.612 344.576 276.619 343.773C276.612 342.985 276.426 342.299 276.062 341.716C275.699 341.125 275.195 340.67 274.551 340.352C273.907 340.027 273.157 339.864 272.301 339.864C271.43 339.864 270.669 340.027 270.017 340.352C269.366 340.67 268.862 341.125 268.506 341.716C268.15 342.299 267.975 342.985 267.983 343.773C267.975 344.576 268.153 345.277 268.517 345.875C268.888 346.473 269.4 346.939 270.051 347.273C270.703 347.606 271.453 347.773 272.301 347.773ZM292.429 361.318C290.929 361.318 289.592 361.061 288.418 360.545C287.251 360.03 286.323 359.314 285.634 358.398C284.952 357.473 284.58 356.402 284.52 355.182H287.384C287.444 355.932 287.702 356.58 288.156 357.125C288.611 357.663 289.205 358.08 289.94 358.375C290.675 358.67 291.49 358.818 292.384 358.818C293.384 358.818 294.27 358.644 295.043 358.295C295.815 357.947 296.421 357.462 296.861 356.841C297.3 356.22 297.52 355.5 297.52 354.682C297.52 353.826 297.308 353.072 296.884 352.42C296.459 351.761 295.838 351.246 295.02 350.875C294.202 350.504 293.202 350.318 292.02 350.318H290.156V347.818H292.02C292.944 347.818 293.755 347.652 294.452 347.318C295.156 346.985 295.705 346.515 296.099 345.909C296.501 345.303 296.702 344.591 296.702 343.773C296.702 342.985 296.527 342.299 296.179 341.716C295.83 341.133 295.338 340.678 294.702 340.352C294.073 340.027 293.33 339.864 292.474 339.864C291.671 339.864 290.914 340.011 290.202 340.307C289.497 340.595 288.921 341.015 288.474 341.568C288.027 342.114 287.785 342.773 287.747 343.545H285.02C285.065 342.326 285.433 341.258 286.122 340.341C286.812 339.417 287.713 338.697 288.827 338.182C289.948 337.667 291.179 337.409 292.52 337.409C293.959 337.409 295.194 337.701 296.224 338.284C297.255 338.86 298.046 339.621 298.599 340.568C299.152 341.515 299.429 342.538 299.429 343.636C299.429 344.947 299.084 346.064 298.395 346.989C297.713 347.913 296.785 348.553 295.611 348.909V349.091C297.08 349.333 298.228 349.958 299.054 350.966C299.88 351.966 300.293 353.205 300.293 354.682C300.293 355.947 299.948 357.083 299.259 358.091C298.577 359.091 297.645 359.879 296.463 360.455C295.281 361.03 293.937 361.318 292.429 361.318Z" fill="white"/>
<path d="M310 335L311.234 340.68L316.657 340.182L311.997 343.195L314.114 348.568L310 344.75L305.886 348.568L308.003 343.195L303.343 340.182L308.766 340.68L310 335Z" fill="white"/>
<path d="M324 335L325.234 340.68L330.657 340.182L325.997 343.195L328.114 348.568L324 344.75L319.886 348.568L322.003 343.195L317.343 340.182L322.766 340.68L324 335Z" fill="white"/>
<path d="M338 335L339.234 340.68L344.657 340.182L339.997 343.195L342.114 348.568L338 344.75L333.886 348.568L336.003 343.195L331.343 340.182L336.766 340.68L338 335Z" fill="white"/>
<path d="M352 335L353.234 340.68L358.657 340.182L353.997 343.195L356.114 348.568L352 344.75L347.886 348.568L350.003 343.195L345.343 340.182L350.766 340.68L352 335Z" fill="white"/>
<path opacity="0.7" d="M378.035 -28C370.566 45.5199 400.181 199.684 577.755 230.611M577.755 230.611C578.512 230.743 579.272 230.873 580.035 231C759.635 261 653.348 243.241 577.755 230.611Z" stroke="#D4DDEB" stroke-width="3"/>
<path opacity="0.6" d="M285.895 -3.13261C316.338 64.2033 419.334 182.675 588.441 120.292M588.441 120.292C589.162 120.026 589.885 119.756 590.608 119.484C761.003 55.2817 660.161 93.2716 588.441 120.292Z" stroke="#D4DDEB" stroke-width="3"/>
<g opacity="0.5" filter="url(#filter0_f_0_386)">
<circle cx="613" cy="375" r="76" fill="#66475D"/>
</g>
<path d="M534.82 364.15C535.502 364.133 536.178 364.283 536.799 364.589C537.345 364.868 537.83 365.272 538.219 365.772V359H539.884V374.779H538.219V373.387C537.827 373.882 537.343 374.281 536.799 374.559C536.178 374.865 535.502 375.016 534.82 374.999C534.168 375.004 533.523 374.866 532.922 374.592C532.346 374.332 531.825 373.948 531.39 373.464C530.95 372.97 530.603 372.387 530.37 371.749C529.877 370.348 529.877 368.8 530.37 367.399C530.603 366.761 530.95 366.178 531.39 365.684C531.825 365.2 532.347 364.816 532.922 364.555C533.523 364.282 534.169 364.145 534.82 364.15ZM535.013 365.838C534.544 365.831 534.079 365.93 533.648 366.128C533.25 366.313 532.892 366.585 532.598 366.928C532.304 367.273 532.076 367.677 531.928 368.117C531.77 368.584 531.691 369.077 531.695 369.574C531.691 370.072 531.772 370.565 531.933 371.031C532.084 371.471 532.313 371.875 532.608 372.22C532.903 372.564 533.261 372.838 533.658 373.025C534.085 373.227 534.547 373.328 535.013 373.322C535.473 373.328 535.929 373.231 536.352 373.037C536.747 372.855 537.104 372.586 537.397 372.248C537.694 371.903 537.924 371.499 538.077 371.059C538.402 370.102 538.402 369.052 538.077 368.095C537.923 367.657 537.692 367.255 537.397 366.911C537.103 366.573 536.747 366.305 536.352 366.123C535.929 365.929 535.473 365.832 535.013 365.838ZM547.291 364.15C547.915 364.143 548.534 364.278 549.107 364.544C549.651 364.799 550.139 365.177 550.538 365.651C550.949 366.149 551.268 366.727 551.477 367.355C551.71 368.057 551.828 368.796 551.827 369.541C551.827 369.659 551.823 369.774 551.816 369.887C551.81 369.999 551.803 370.107 551.796 370.209H544.216C544.264 370.701 544.393 371.18 544.597 371.623C544.776 372.006 545.022 372.348 545.322 372.631C545.613 372.902 545.951 373.107 546.317 373.234C546.697 373.367 547.094 373.434 547.494 373.432C548.043 373.436 548.587 373.324 549.097 373.102C549.597 372.883 550.06 372.576 550.467 372.193L551.35 373.42C551.068 373.707 550.758 373.96 550.426 374.177C550.119 374.376 549.792 374.539 549.452 374.664C549.122 374.784 548.782 374.87 548.437 374.921C548.091 374.972 547.742 374.998 547.392 374.999C546.717 375.007 546.047 374.875 545.418 374.609C544.836 374.362 544.309 373.985 543.871 373.502C543.43 373.011 543.087 372.427 542.861 371.788C542.381 370.363 542.381 368.802 542.861 367.377C543.084 366.739 543.424 366.155 543.861 365.662C544.291 365.184 544.808 364.806 545.378 364.55C545.984 364.279 546.635 364.143 547.291 364.15ZM547.26 365.739C546.865 365.733 546.472 365.809 546.103 365.964C545.769 366.106 545.464 366.318 545.205 366.588C544.946 366.864 544.733 367.186 544.576 367.541C544.406 367.927 544.291 368.339 544.237 368.763H550.132C550.085 368.331 549.977 367.911 549.812 367.515C549.665 367.159 549.459 366.836 549.204 366.561C548.956 366.298 548.663 366.091 548.341 365.953C547.997 365.807 547.63 365.735 547.26 365.739ZM559.499 364.15C560.148 364.144 560.792 364.282 561.39 364.555C561.964 364.818 562.483 365.201 562.916 365.684C563.358 366.179 563.706 366.761 563.942 367.399C564.443 368.798 564.443 370.349 563.942 371.749C563.706 372.387 563.358 372.97 562.916 373.464C562.483 373.947 561.964 374.331 561.39 374.592C560.792 374.866 560.148 375.004 559.499 374.999C558.813 375.016 558.133 374.866 557.509 374.559C556.966 374.283 556.485 373.883 556.098 373.387V374.779H554.444V359H556.098V365.761C556.485 365.265 556.966 364.865 557.509 364.589C558.133 364.282 558.813 364.132 559.499 364.15ZM559.305 365.838C558.845 365.832 558.388 365.929 557.965 366.123C557.57 366.305 557.215 366.573 556.921 366.911C556.626 367.255 556.395 367.657 556.241 368.095C555.915 369.052 555.915 370.102 556.241 371.059C556.394 371.499 556.625 371.903 556.921 372.248C557.214 372.586 557.57 372.855 557.965 373.037C558.388 373.231 558.845 373.328 559.305 373.322C559.773 373.329 560.237 373.228 560.665 373.025C561.06 372.836 561.416 372.562 561.711 372.22C562.004 371.875 562.231 371.471 562.379 371.031C562.537 370.565 562.617 370.071 562.613 369.574C562.617 369.077 562.536 368.583 562.375 368.117C562.223 367.677 561.993 367.274 561.699 366.928C561.406 366.587 561.051 366.314 560.655 366.128C560.229 365.93 559.769 365.831 559.305 365.838ZM567.747 359.427C568.062 359.426 568.365 359.56 568.589 359.8C568.701 359.919 568.788 360.06 568.848 360.217C568.907 360.373 568.937 360.54 568.935 360.709C568.936 360.879 568.905 361.047 568.843 361.203C568.784 361.354 568.697 361.49 568.588 361.604C568.48 361.718 568.351 361.806 568.209 361.866C568.062 361.928 567.905 361.96 567.747 361.958C567.591 361.96 567.436 361.928 567.291 361.866C567.152 361.806 567.026 361.716 566.92 361.603C566.815 361.488 566.731 361.352 566.672 361.203C566.61 361.047 566.579 360.879 566.58 360.709C566.579 360.536 566.61 360.364 566.672 360.205C566.731 360.055 566.816 359.917 566.92 359.8C567.028 359.681 567.157 359.587 567.299 359.523C567.441 359.459 567.593 359.426 567.747 359.427ZM568.589 374.779H566.936V364.369H568.589V374.779ZM578.482 366.002H574.433V371.076C574.426 371.419 574.473 371.762 574.571 372.088C574.65 372.348 574.779 372.585 574.951 372.785C575.111 372.966 575.307 373.104 575.525 373.19C575.757 373.28 576.003 373.325 576.25 373.322C576.606 373.322 576.96 373.255 577.295 373.125C577.621 372.999 577.932 372.83 578.218 372.62L579 373.968C578.606 374.273 578.176 374.52 577.721 374.702C577.205 374.906 576.658 375.007 576.108 374.999C575.632 375.006 575.159 374.926 574.708 374.762C574.31 374.616 573.95 374.37 573.657 374.045C573.357 373.699 573.131 373.286 572.998 372.834C572.836 372.276 572.758 371.693 572.769 371.108V366.002H570.71V364.369H572.769V361.104H574.433V364.369H578.482V366.002Z" fill="white"/>
<path d="M570 280H538V339H570V280Z" fill="#FF5F00"/>
<path d="M540.069 309.5C540.064 303.821 541.316 298.215 543.729 293.107C546.143 287.999 549.655 283.523 554 280.017C548.621 275.669 542.16 272.965 535.357 272.214C528.553 271.463 521.682 272.696 515.528 275.771C509.374 278.847 504.185 283.641 500.555 289.605C496.925 295.569 495 302.464 495 309.5C495 316.536 496.925 323.431 500.555 329.395C504.185 335.359 509.374 340.153 515.528 343.229C521.682 346.304 528.553 347.537 535.357 346.786C542.16 346.035 548.621 343.331 554 338.983C549.655 335.478 546.143 331.001 543.729 325.893C541.316 320.785 540.064 315.179 540.069 309.5Z" fill="#EB001B"/>
<path d="M609.714 333V331.341H610.176V331.003H609V331.341H609.462V333H609.714ZM612 333V331H611.639L611.224 332.376L610.809 331H610.448V333H610.703V331.491L611.091 332.792H611.356L611.745 331.488V333H612Z" fill="#F79E1B"/>
<path d="M576.535 272C568.359 271.987 560.42 274.812 554 280.017C558.341 283.526 561.849 288.003 564.263 293.11C566.676 298.217 567.93 303.821 567.93 309.5C567.93 315.178 566.676 320.782 564.263 325.889C561.849 330.996 558.341 335.473 554 338.982C558.57 342.676 563.932 345.194 569.64 346.324C575.348 347.454 581.236 347.164 586.813 345.479C592.391 343.794 597.496 340.762 601.702 336.636C605.908 332.511 609.095 327.411 610.996 321.761C612.896 316.112 613.456 310.077 612.629 304.16C611.801 298.243 609.609 292.616 606.237 287.747C602.865 282.877 598.41 278.908 593.243 276.169C588.076 273.429 582.348 272 576.535 272Z" fill="#F79E1B"/>
</g>
<defs>
<filter id="filter0_f_0_386" x="427" y="189" width="372" height="372" filterUnits="userSpaceOnUse" color-interpolation-filters="sRGB">
<feFlood flood-opacity="0" result="BackgroundImageFix"/>
<feBlend mode="normal" in="SourceGraphic" in2="BackgroundImageFix" result="shape"/>
<feGaussianBlur stdDeviation="55" result="effect1_foregroundBlur_0_386"/>
</filter>
<clipPath id="clip0_0_386">
<rect width="652" height="414" rx="30" transform="matrix(1 0 0 -1 0 414)" fill="white"/>
</clipPath>
</defs>
</svg>
