<svg width="652" height="414" viewBox="0 0 652 414" fill="none" xmlns="http://www.w3.org/2000/svg">
<g clip-path="url(#clip0_0_443)">
<rect width="652" height="414" rx="30" fill="url(#paint0_linear_0_443)"/>
<g filter="url(#filter0_f_0_443)">
<circle cx="20.5" cy="256.5" r="113.5" fill="#845EDC" fill-opacity="0.8"/>
</g>
<g opacity="0.9" filter="url(#filter1_f_0_443)">
<circle cx="595" cy="171" r="125" fill="#A2D8FC"/>
</g>
<g opacity="0.5" filter="url(#filter2_f_0_443)">
<circle cx="506" cy="20" r="125" fill="#D55FFF"/>
</g>
<g filter="url(#filter3_f_0_443)">
<ellipse cx="321.5" cy="43.5" rx="134.5" ry="137.5" fill="#7B40F9"/>
</g>
<rect opacity="0.5" x="40" y="40" width="64" height="51" rx="8" fill="white"/>
<path d="M53.5 47.714C53.5 47.714 62.5 44.2135 62.5 52.714C62.5 61.2145 52.5 58.214 52.5 58.214M52.5 58.214H40M52.5 58.214V70.714M52.5 70.714H40M52.5 70.714C52.5 70.714 65.5 70.714 64.5 78.714C63.5 86.714 56 85.214 56 85.214" stroke="white" stroke-width="4"/>
<path d="M90.8254 83.9122C90.8254 83.9122 81.8887 87.5712 81.7385 79.072C81.5884 70.5728 91.6398 73.3962 91.6398 73.3962M91.6398 73.3962L104.138 73.1754M91.6398 73.3962L91.419 60.8982M91.419 60.8982L103.917 60.6774M91.419 60.8982C91.419 60.8982 78.4211 61.1278 79.2796 53.1114C80.1381 45.0949 87.6635 46.4622 87.6635 46.4622" stroke="white" stroke-width="4"/>
<path d="M50.0408 150.091V161H48.283L43.1428 153.569H43.0522V161H41.076V150.091H42.8445L47.9794 157.527H48.0753V150.091H50.0408ZM53.5951 161H51.4857L55.3263 150.091H57.7659L61.6118 161H59.5024L56.5887 152.328H56.5035L53.5951 161ZM53.6643 156.723H59.4172V158.31H53.6643V156.723ZM63.0487 150.091H65.467L68.7056 157.996H68.8335L72.0721 150.091H74.4904V161H72.5941V153.505H72.4929L69.478 160.968H68.0611L65.0462 153.489H64.945V161H63.0487V150.091ZM76.6424 161V150.091H83.7376V151.748H78.6186V154.709H83.37V156.366H78.6186V159.343H83.7802V161H76.6424Z" fill="#CFD8FB"/>
<path d="M42.152 202V180.182H46.1044V198.687H55.7138V202H42.152ZM66.218 202.32C64.5774 202.32 63.1605 201.979 61.9673 201.297C60.7813 200.608 59.8686 199.635 59.2294 198.378C58.5902 197.114 58.2706 195.626 58.2706 193.914C58.2706 192.231 58.5902 190.754 59.2294 189.482C59.8757 188.204 60.7777 187.21 61.9354 186.499C63.093 185.782 64.4531 185.423 66.0156 185.423C67.0241 185.423 67.9759 185.587 68.8707 185.913C69.7727 186.233 70.5682 186.73 71.2571 187.405C71.9531 188.08 72.5 188.939 72.8977 189.983C73.2955 191.02 73.4943 192.256 73.4943 193.69V194.873H60.0817V192.273H69.7976C69.7905 191.535 69.6307 190.878 69.3182 190.303C69.0057 189.72 68.5689 189.262 68.0078 188.928C67.4538 188.594 66.8075 188.428 66.0689 188.428C65.2805 188.428 64.5881 188.619 63.9915 189.003C63.3949 189.379 62.9297 189.876 62.5959 190.494C62.2692 191.105 62.1023 191.776 62.0952 192.508V194.777C62.0952 195.729 62.2692 196.545 62.6172 197.227C62.9652 197.902 63.4517 198.42 64.0767 198.783C64.7017 199.138 65.4332 199.315 66.2713 199.315C66.8324 199.315 67.3402 199.237 67.7947 199.081C68.2493 198.918 68.6435 198.68 68.9773 198.367C69.3111 198.055 69.5632 197.668 69.7337 197.206L73.3345 197.611C73.1072 198.562 72.674 199.393 72.0348 200.104C71.4027 200.807 70.593 201.354 69.6058 201.744C68.6186 202.128 67.4893 202.32 66.218 202.32ZM84.3688 202V180.182H92.7211C94.2978 180.182 95.6081 180.43 96.6522 180.928C97.7033 181.418 98.4881 182.089 99.0066 182.941C99.5321 183.793 99.7949 184.759 99.7949 185.839C99.7949 186.727 99.6245 187.487 99.2836 188.119C98.9426 188.744 98.4846 189.251 97.9093 189.642C97.334 190.033 96.6912 190.313 95.981 190.484V190.697C96.7551 190.739 97.4973 190.977 98.2076 191.411C98.9249 191.837 99.5108 192.44 99.9654 193.222C100.42 194.003 100.647 194.947 100.647 196.055C100.647 197.185 100.374 198.2 99.8269 199.102C99.28 199.997 98.4561 200.704 97.3553 201.222C96.2544 201.741 94.8695 202 93.2005 202H84.3688ZM88.3212 198.697H92.5719C94.0066 198.697 95.04 198.424 95.6721 197.877C96.3113 197.323 96.6309 196.613 96.6309 195.746C96.6309 195.1 96.4711 194.518 96.1515 193.999C95.8319 193.474 95.3773 193.062 94.7878 192.763C94.1983 192.458 93.4952 192.305 92.6784 192.305H88.3212V198.697ZM88.3212 189.461H92.231C92.9128 189.461 93.5272 189.337 94.074 189.088C94.6209 188.832 95.0506 188.474 95.3631 188.012C95.6827 187.543 95.8425 186.989 95.8425 186.35C95.8425 185.505 95.5442 184.809 94.9476 184.262C94.3581 183.715 93.481 183.442 92.3162 183.442H88.3212V189.461ZM111.053 202.32C109.455 202.32 108.07 201.968 106.898 201.265C105.726 200.562 104.817 199.578 104.171 198.314C103.532 197.05 103.212 195.572 103.212 193.882C103.212 192.192 103.532 190.711 104.171 189.44C104.817 188.168 105.726 187.181 106.898 186.478C108.07 185.775 109.455 185.423 111.053 185.423C112.651 185.423 114.036 185.775 115.208 186.478C116.38 187.181 117.285 188.168 117.924 189.44C118.571 190.711 118.894 192.192 118.894 193.882C118.894 195.572 118.571 197.05 117.924 198.314C117.285 199.578 116.38 200.562 115.208 201.265C114.036 201.968 112.651 202.32 111.053 202.32ZM111.074 199.23C111.941 199.23 112.665 198.992 113.248 198.516C113.83 198.033 114.263 197.387 114.547 196.577C114.838 195.768 114.984 194.866 114.984 193.871C114.984 192.87 114.838 191.964 114.547 191.155C114.263 190.338 113.83 189.688 113.248 189.205C112.665 188.722 111.941 188.481 111.074 188.481C110.186 188.481 109.448 188.722 108.858 189.205C108.276 189.688 107.839 190.338 107.548 191.155C107.264 191.964 107.122 192.87 107.122 193.871C107.122 194.866 107.264 195.768 107.548 196.577C107.839 197.387 108.276 198.033 108.858 198.516C109.448 198.992 110.186 199.23 111.074 199.23ZM126.024 192.412V202H122.167V185.636H125.853V188.417H126.045C126.421 187.501 127.021 186.773 127.845 186.233C128.676 185.693 129.703 185.423 130.924 185.423C132.053 185.423 133.037 185.665 133.875 186.148C134.72 186.631 135.374 187.33 135.835 188.246C136.304 189.163 136.535 190.274 136.528 191.581V202H132.671V192.178C132.671 191.084 132.387 190.228 131.819 189.61C131.258 188.992 130.48 188.683 129.486 188.683C128.811 188.683 128.211 188.832 127.686 189.131C127.167 189.422 126.759 189.844 126.46 190.398C126.169 190.952 126.024 191.624 126.024 192.412ZM148.06 202V180.182H156.412C157.989 180.182 159.3 180.43 160.344 180.928C161.395 181.418 162.18 182.089 162.698 182.941C163.224 183.793 163.486 184.759 163.486 185.839C163.486 186.727 163.316 187.487 162.975 188.119C162.634 188.744 162.176 189.251 161.601 189.642C161.025 190.033 160.383 190.313 159.672 190.484V190.697C160.447 190.739 161.189 190.977 161.899 191.411C162.616 191.837 163.202 192.44 163.657 193.222C164.111 194.003 164.339 194.947 164.339 196.055C164.339 197.185 164.065 198.2 163.518 199.102C162.971 199.997 162.148 200.704 161.047 201.222C159.946 201.741 158.561 202 156.892 202H148.06ZM152.013 198.697H156.263C157.698 198.697 158.731 198.424 159.363 197.877C160.003 197.323 160.322 196.613 160.322 195.746C160.322 195.1 160.162 194.518 159.843 193.999C159.523 193.474 159.069 193.062 158.479 192.763C157.89 192.458 157.187 192.305 156.37 192.305H152.013V198.697ZM152.013 189.461H155.922C156.604 189.461 157.219 189.337 157.765 189.088C158.312 188.832 158.742 188.474 159.055 188.012C159.374 187.543 159.534 186.989 159.534 186.35C159.534 185.505 159.236 184.809 158.639 184.262C158.05 183.715 157.172 183.442 156.008 183.442H152.013V189.461ZM172.315 202.33C171.278 202.33 170.344 202.146 169.513 201.776C168.69 201.4 168.036 200.846 167.553 200.114C167.077 199.383 166.839 198.481 166.839 197.408C166.839 196.485 167.01 195.722 167.351 195.118C167.692 194.514 168.157 194.031 168.746 193.669C169.336 193.307 170 193.033 170.739 192.849C171.484 192.657 172.255 192.518 173.05 192.433C174.009 192.334 174.787 192.245 175.384 192.167C175.98 192.082 176.413 191.954 176.683 191.783C176.96 191.606 177.099 191.332 177.099 190.963V190.899C177.099 190.097 176.861 189.475 176.385 189.035C175.909 188.594 175.224 188.374 174.329 188.374C173.384 188.374 172.635 188.58 172.081 188.992C171.534 189.404 171.165 189.891 170.973 190.452L167.372 189.94C167.656 188.946 168.125 188.115 168.778 187.447C169.432 186.773 170.231 186.268 171.175 185.935C172.12 185.594 173.164 185.423 174.308 185.423C175.096 185.423 175.881 185.516 176.662 185.7C177.443 185.885 178.157 186.19 178.803 186.616C179.45 187.036 179.968 187.607 180.359 188.332C180.756 189.056 180.955 189.962 180.955 191.048V202H177.248V199.752H177.12C176.886 200.207 176.555 200.633 176.129 201.031C175.71 201.421 175.181 201.737 174.542 201.979C173.91 202.213 173.168 202.33 172.315 202.33ZM173.317 199.496C174.091 199.496 174.762 199.344 175.33 199.038C175.898 198.726 176.335 198.314 176.641 197.803C176.953 197.291 177.109 196.734 177.109 196.13V194.202C176.989 194.301 176.783 194.393 176.491 194.479C176.207 194.564 175.888 194.638 175.533 194.702C175.178 194.766 174.826 194.823 174.478 194.873C174.13 194.923 173.828 194.965 173.572 195.001C172.997 195.079 172.482 195.207 172.028 195.384C171.573 195.562 171.214 195.81 170.952 196.13C170.689 196.442 170.558 196.847 170.558 197.344C170.558 198.055 170.817 198.591 171.335 198.953C171.854 199.315 172.514 199.496 173.317 199.496ZM195.263 195.118V185.636H199.119V202H195.38V199.092H195.21C194.84 200.008 194.233 200.757 193.388 201.339C192.55 201.922 191.516 202.213 190.288 202.213C189.215 202.213 188.267 201.975 187.443 201.499C186.626 201.016 185.987 200.317 185.526 199.401C185.064 198.477 184.833 197.362 184.833 196.055V185.636H188.69V195.459C188.69 196.496 188.974 197.32 189.542 197.93C190.11 198.541 190.856 198.847 191.779 198.847C192.347 198.847 192.898 198.708 193.43 198.431C193.963 198.154 194.4 197.742 194.741 197.195C195.089 196.641 195.263 195.949 195.263 195.118ZM203.085 202V185.636H206.771V188.417H206.963C207.304 187.479 207.868 186.748 208.657 186.222C209.445 185.69 210.386 185.423 211.48 185.423C212.588 185.423 213.522 185.693 214.282 186.233C215.049 186.766 215.589 187.494 215.901 188.417H216.072C216.434 187.508 217.045 186.783 217.904 186.244C218.77 185.697 219.797 185.423 220.983 185.423C222.488 185.423 223.717 185.899 224.669 186.851C225.621 187.803 226.096 189.191 226.096 191.016V202H222.229V191.613C222.229 190.597 221.959 189.855 221.42 189.386C220.88 188.911 220.219 188.673 219.438 188.673C218.508 188.673 217.78 188.964 217.254 189.546C216.736 190.121 216.476 190.871 216.476 191.794V202H212.694V191.453C212.694 190.608 212.439 189.933 211.927 189.429C211.423 188.925 210.763 188.673 209.946 188.673C209.392 188.673 208.888 188.815 208.433 189.099C207.979 189.376 207.616 189.77 207.346 190.281C207.077 190.786 206.942 191.375 206.942 192.05V202H203.085ZM234.718 202.33C233.681 202.33 232.747 202.146 231.916 201.776C231.092 201.4 230.439 200.846 229.956 200.114C229.48 199.383 229.242 198.481 229.242 197.408C229.242 196.485 229.412 195.722 229.753 195.118C230.094 194.514 230.559 194.031 231.149 193.669C231.738 193.307 232.402 193.033 233.141 192.849C233.887 192.657 234.657 192.518 235.453 192.433C236.412 192.334 237.189 192.245 237.786 192.167C238.382 192.082 238.816 191.954 239.086 191.783C239.363 191.606 239.501 191.332 239.501 190.963V190.899C239.501 190.097 239.263 189.475 238.787 189.035C238.311 188.594 237.626 188.374 236.731 188.374C235.787 188.374 235.037 188.58 234.483 188.992C233.936 189.404 233.567 189.891 233.375 190.452L229.775 189.94C230.059 188.946 230.527 188.115 231.181 187.447C231.834 186.773 232.633 186.268 233.578 185.935C234.522 185.594 235.566 185.423 236.71 185.423C237.498 185.423 238.283 185.516 239.064 185.7C239.846 185.885 240.559 186.19 241.206 186.616C241.852 187.036 242.37 187.607 242.761 188.332C243.159 189.056 243.358 189.962 243.358 191.048V202H239.65V199.752H239.522C239.288 200.207 238.958 200.633 238.532 201.031C238.113 201.421 237.583 201.737 236.944 201.979C236.312 202.213 235.57 202.33 234.718 202.33ZM235.719 199.496C236.493 199.496 237.164 199.344 237.733 199.038C238.301 198.726 238.738 198.314 239.043 197.803C239.355 197.291 239.512 196.734 239.512 196.13V194.202C239.391 194.301 239.185 194.393 238.894 194.479C238.61 194.564 238.29 194.638 237.935 194.702C237.58 194.766 237.228 194.823 236.88 194.873C236.532 194.923 236.23 194.965 235.975 195.001C235.4 195.079 234.885 195.207 234.43 195.384C233.975 195.562 233.617 195.81 233.354 196.13C233.091 196.442 232.96 196.847 232.96 197.344C232.96 198.055 233.219 198.591 233.738 198.953C234.256 199.315 234.917 199.496 235.719 199.496Z" fill="white"/>
<path d="M595.993 82.8961C595.993 82.0973 596.357 81.3103 597.086 80.6995C607.08 72.3128 607.08 58.6872 597.086 50.3005C595.642 49.0906 595.642 47.1172 597.086 45.9074C598.53 44.6975 600.885 44.6975 602.328 45.9074C615.224 56.7139 615.224 74.2861 602.328 85.0926C600.885 86.3025 598.53 86.3025 597.086 85.0926C596.357 84.4818 595.993 83.6831 595.993 82.8961Z" fill="#FDFDFF"/>
<path d="M585.974 74.4906C585.974 73.6919 586.338 72.9049 587.067 72.2941C589.226 70.4852 590.417 68.0654 590.417 65.5048C590.417 62.9441 589.226 60.5244 587.067 58.7155C585.623 57.5056 585.623 55.5323 587.067 54.3224C588.511 53.1126 590.866 53.1126 592.309 54.3224C595.87 57.306 597.832 61.2762 597.832 65.5048C597.832 69.7334 595.87 73.7036 592.295 76.6871C590.852 77.897 588.497 77.897 587.053 76.6871C586.338 76.0881 585.974 75.2893 585.974 74.4906Z" fill="#FDFDFF"/>
<path d="M574.003 65.5048C574.003 67.7948 576.218 69.6512 578.95 69.6512C581.683 69.6512 583.898 67.7948 583.898 65.5048C583.898 63.2148 581.683 61.3584 578.95 61.3584C576.218 61.3584 574.003 63.2148 574.003 65.5048Z" fill="#FDFDFF"/>
<path d="M475 184L476.234 189.68L481.657 189.182L476.997 192.195L479.114 197.568L475 193.75L470.886 197.568L473.003 192.195L468.343 189.182L473.766 189.68L475 184Z" fill="white"/>
<path d="M492 184L493.234 189.68L498.657 189.182L493.997 192.195L496.114 197.568L492 193.75L487.886 197.568L490.003 192.195L485.343 189.182L490.766 189.68L492 184Z" fill="white"/>
<path d="M509 184L510.234 189.68L515.657 189.182L510.997 192.195L513.114 197.568L509 193.75L504.886 197.568L507.003 192.195L502.343 189.182L507.766 189.68L509 184Z" fill="white"/>
<path d="M526 184L527.234 189.68L532.657 189.182L527.997 192.195L530.114 197.568L526 193.75L521.886 197.568L524.003 192.195L519.343 189.182L524.766 189.68L526 184Z" fill="white"/>
<path d="M400 184L401.234 189.68L406.657 189.182L401.997 192.195L404.114 197.568L400 193.75L395.886 197.568L398.003 192.195L393.343 189.182L398.766 189.68L400 184Z" fill="white"/>
<path d="M417 184L418.234 189.68L423.657 189.182L418.997 192.195L421.114 197.568L417 193.75L412.886 197.568L415.003 192.195L410.343 189.182L415.766 189.68L417 184Z" fill="white"/>
<path d="M434 184L435.234 189.68L440.657 189.182L435.997 192.195L438.114 197.568L434 193.75L429.886 197.568L432.003 192.195L427.343 189.182L432.766 189.68L434 184Z" fill="white"/>
<path d="M451 184L452.234 189.68L457.657 189.182L452.997 192.195L455.114 197.568L451 193.75L446.886 197.568L449.003 192.195L444.343 189.182L449.766 189.68L451 184Z" fill="white"/>
<path d="M553.813 180.182V202H549.861V184.028H549.733L544.63 187.288V183.665L550.053 180.182H553.813ZM568.227 180.182V202H564.275V184.028H564.147L559.044 187.288V183.665L564.467 180.182H568.227ZM581.832 202.415C580.077 202.415 578.572 201.972 577.315 201.084C576.065 200.189 575.102 198.9 574.428 197.217C573.76 195.526 573.426 193.491 573.426 191.112C573.433 188.733 573.771 186.709 574.438 185.04C575.113 183.364 576.075 182.085 577.325 181.205C578.582 180.324 580.085 179.884 581.832 179.884C583.579 179.884 585.081 180.324 586.338 181.205C587.595 182.085 588.558 183.364 589.225 185.04C589.9 186.716 590.237 188.74 590.237 191.112C590.237 193.499 589.9 195.537 589.225 197.227C588.558 198.911 587.595 200.196 586.338 201.084C585.088 201.972 583.586 202.415 581.832 202.415ZM581.832 199.081C583.195 199.081 584.271 198.41 585.06 197.067C585.855 195.718 586.253 193.733 586.253 191.112C586.253 189.379 586.072 187.923 585.71 186.744C585.347 185.565 584.836 184.678 584.175 184.081C583.515 183.477 582.734 183.175 581.832 183.175C580.475 183.175 579.403 183.85 578.614 185.2C577.826 186.542 577.428 188.513 577.421 191.112C577.414 192.852 577.588 194.315 577.943 195.501C578.305 196.687 578.817 197.582 579.477 198.186C580.138 198.783 580.923 199.081 581.832 199.081ZM601.767 202.298C600.723 202.291 599.704 202.11 598.709 201.755C597.715 201.393 596.82 200.807 596.025 199.997C595.229 199.18 594.597 198.097 594.128 196.748C593.66 195.391 593.429 193.712 593.436 191.709C593.436 189.841 593.635 188.175 594.032 186.712C594.43 185.249 595.002 184.013 595.748 183.005C596.493 181.989 597.392 181.215 598.443 180.683C599.501 180.15 600.684 179.884 601.991 179.884C603.361 179.884 604.576 180.153 605.634 180.693C606.699 181.233 607.559 181.972 608.212 182.909C608.866 183.839 609.27 184.891 609.427 186.062H605.538C605.339 185.224 604.931 184.557 604.313 184.06C603.702 183.555 602.928 183.303 601.991 183.303C600.478 183.303 599.313 183.96 598.496 185.274C597.687 186.588 597.278 188.392 597.271 190.686H597.42C597.768 190.061 598.219 189.525 598.773 189.077C599.327 188.63 599.952 188.286 600.648 188.044C601.351 187.795 602.094 187.671 602.875 187.671C604.153 187.671 605.3 187.977 606.316 188.587C607.339 189.198 608.148 190.04 608.745 191.112C609.341 192.178 609.636 193.399 609.629 194.777C609.636 196.212 609.309 197.501 608.649 198.644C607.988 199.781 607.069 200.675 605.89 201.329C604.711 201.982 603.336 202.305 601.767 202.298ZM601.746 199.102C602.52 199.102 603.212 198.914 603.823 198.538C604.434 198.161 604.917 197.653 605.272 197.014C605.627 196.375 605.801 195.658 605.794 194.862C605.801 194.081 605.631 193.374 605.282 192.742C604.942 192.11 604.469 191.609 603.866 191.24C603.262 190.871 602.573 190.686 601.799 190.686C601.224 190.686 600.687 190.796 600.19 191.016C599.693 191.237 599.26 191.542 598.89 191.933C598.521 192.316 598.23 192.763 598.017 193.275C597.811 193.779 597.704 194.319 597.697 194.894C597.704 195.654 597.882 196.354 598.23 196.993C598.578 197.632 599.057 198.143 599.668 198.527C600.279 198.911 600.971 199.102 601.746 199.102Z" fill="white"/>
<path d="M539.295 145.455V160H537.591L529.665 148.58H529.523V160H527.761V145.455H529.466L537.42 156.903H537.562V145.455H539.295ZM552.365 145.455H554.127V155.085C554.127 156.08 553.892 156.967 553.424 157.749C552.96 158.525 552.304 159.138 551.456 159.588C550.609 160.033 549.614 160.256 548.473 160.256C547.332 160.256 546.338 160.033 545.49 159.588C544.643 159.138 543.985 158.525 543.516 157.749C543.052 156.967 542.82 156.08 542.82 155.085V145.455H544.581V154.943C544.581 155.653 544.738 156.286 545.05 156.839C545.363 157.389 545.808 157.822 546.385 158.139C546.968 158.452 547.664 158.608 548.473 158.608C549.283 158.608 549.979 158.452 550.561 158.139C551.144 157.822 551.589 157.389 551.897 156.839C552.209 156.286 552.365 155.653 552.365 154.943V145.455ZM557.644 145.455H559.746L564.69 157.528H564.86L569.803 145.455H571.906V160H570.258V148.949H570.116L565.57 160H563.979L559.434 148.949H559.292V160H557.644V145.455ZM575.437 160V145.455H580.522C581.536 145.455 582.371 145.63 583.029 145.98C583.688 146.326 584.178 146.792 584.5 147.379C584.822 147.962 584.983 148.608 584.983 149.318C584.983 149.943 584.871 150.459 584.649 150.866C584.431 151.274 584.142 151.596 583.782 151.832C583.427 152.069 583.041 152.244 582.625 152.358V152.5C583.07 152.528 583.517 152.685 583.967 152.969C584.417 153.253 584.793 153.66 585.096 154.19C585.399 154.721 585.551 155.369 585.551 156.136C585.551 156.866 585.385 157.521 585.054 158.104C584.722 158.686 584.199 159.148 583.484 159.489C582.769 159.83 581.839 160 580.693 160H575.437ZM577.199 158.438H580.693C581.843 158.438 582.66 158.215 583.143 157.77C583.631 157.32 583.875 156.776 583.875 156.136C583.875 155.644 583.749 155.189 583.498 154.773C583.247 154.351 582.89 154.015 582.426 153.764C581.962 153.509 581.413 153.381 580.778 153.381H577.199V158.438ZM577.199 151.847H580.466C580.996 151.847 581.474 151.742 581.9 151.534C582.331 151.326 582.672 151.032 582.923 150.653C583.179 150.275 583.306 149.83 583.306 149.318C583.306 148.679 583.084 148.137 582.639 147.692C582.194 147.242 581.488 147.017 580.522 147.017H577.199V151.847ZM588.445 160V145.455H597.223V147.017H590.206V151.932H596.769V153.494H590.206V158.438H597.337V160H588.445ZM600.398 160V145.455H605.313C606.449 145.455 607.382 145.649 608.111 146.037C608.84 146.42 609.38 146.948 609.73 147.621C610.081 148.293 610.256 149.058 610.256 149.915C610.256 150.772 610.081 151.532 609.73 152.195C609.38 152.857 608.843 153.378 608.118 153.757C607.394 154.131 606.468 154.318 605.341 154.318H601.364V152.727H605.284C606.061 152.727 606.686 152.614 607.159 152.386C607.638 152.159 607.983 151.837 608.196 151.42C608.414 150.999 608.523 150.497 608.523 149.915C608.523 149.332 608.414 148.823 608.196 148.388C607.979 147.952 607.631 147.616 607.152 147.379C606.674 147.138 606.042 147.017 605.256 147.017H602.159V160H600.398ZM607.245 153.466L610.824 160H608.779L605.256 153.466H607.245Z" fill="white"/>
<rect y="249" width="652" height="165" fill="#503396"/>
<path d="M53.1307 331.636V295.273H55.4602V331.636H53.1307ZM59.3097 307.276C59.196 306.13 58.7083 305.24 57.8466 304.605C56.9848 303.971 55.8153 303.653 54.3381 303.653C53.3343 303.653 52.4867 303.795 51.7955 304.08C51.1042 304.354 50.5739 304.738 50.2045 305.23C49.8447 305.723 49.6648 306.281 49.6648 306.906C49.6458 307.427 49.7547 307.882 49.9915 308.27C50.2377 308.658 50.5739 308.994 51 309.278C51.4261 309.553 51.9186 309.795 52.4773 310.003C53.036 310.202 53.6326 310.372 54.267 310.514L56.8807 311.139C58.1496 311.423 59.3144 311.802 60.375 312.276C61.4356 312.749 62.3542 313.331 63.1307 314.023C63.9072 314.714 64.5085 315.528 64.9347 316.466C65.3703 317.403 65.5928 318.478 65.6023 319.69C65.5928 321.471 65.1383 323.014 64.2386 324.321C63.3485 325.618 62.0606 326.627 60.375 327.347C58.6989 328.057 56.6771 328.412 54.3097 328.412C51.9612 328.412 49.9157 328.052 48.1733 327.332C46.4403 326.613 45.0862 325.547 44.1108 324.136C43.1449 322.716 42.6383 320.959 42.5909 318.866H48.5426C48.6089 319.842 48.8883 320.656 49.3807 321.31C49.8826 321.954 50.5502 322.441 51.3835 322.773C52.2263 323.095 53.178 323.256 54.2386 323.256C55.2803 323.256 56.1847 323.104 56.9517 322.801C57.7282 322.498 58.3295 322.077 58.7557 321.537C59.1818 320.997 59.3949 320.377 59.3949 319.676C59.3949 319.023 59.2008 318.473 58.8125 318.028C58.4337 317.583 57.875 317.205 57.1364 316.892C56.4072 316.58 55.5123 316.295 54.4517 316.04L51.2841 315.244C48.8314 314.648 46.8949 313.715 45.4744 312.446C44.054 311.177 43.3485 309.468 43.358 307.318C43.3485 305.557 43.8172 304.018 44.7642 302.702C45.7206 301.385 47.0322 300.358 48.6989 299.619C50.3655 298.881 52.2595 298.511 54.3807 298.511C56.5398 298.511 58.4242 298.881 60.0341 299.619C61.6534 300.358 62.9129 301.385 63.8125 302.702C64.7121 304.018 65.1761 305.543 65.2045 307.276H59.3097ZM78.8267 328V323.568L89.1818 313.98C90.0625 313.128 90.8011 312.361 91.3977 311.679C92.0038 310.997 92.4631 310.33 92.7756 309.676C93.0881 309.013 93.2443 308.298 93.2443 307.531C93.2443 306.679 93.0502 305.945 92.6619 305.33C92.2737 304.705 91.7434 304.226 91.071 303.895C90.3987 303.554 89.6364 303.384 88.7841 303.384C87.8939 303.384 87.1174 303.563 86.4545 303.923C85.7917 304.283 85.2803 304.799 84.9205 305.472C84.5606 306.144 84.3807 306.944 84.3807 307.872H78.5426C78.5426 305.969 78.9735 304.316 79.8352 302.915C80.697 301.513 81.9044 300.429 83.4574 299.662C85.0104 298.895 86.8002 298.511 88.8267 298.511C90.91 298.511 92.7235 298.881 94.267 299.619C95.8201 300.348 97.0275 301.362 97.8892 302.659C98.7509 303.956 99.1818 305.443 99.1818 307.119C99.1818 308.218 98.964 309.302 98.5284 310.372C98.1023 311.442 97.34 312.631 96.2415 313.938C95.143 315.235 93.5947 316.793 91.5966 318.611L87.3494 322.773V322.972H99.5653V328H78.8267ZM102.957 322.886V318.043L115.102 298.909H119.278V305.614H116.806L109.15 317.73V317.957H126.408V322.886H102.957ZM116.92 328V321.409L117.033 319.264V298.909H122.8V328H116.92ZM141.913 328.639C139.469 328.63 137.367 328.028 135.606 326.835C133.854 325.642 132.504 323.914 131.558 321.651C130.62 319.387 130.156 316.665 130.165 313.483C130.165 310.311 130.634 307.607 131.572 305.372C132.519 303.137 133.868 301.437 135.62 300.273C137.381 299.098 139.479 298.511 141.913 298.511C144.346 298.511 146.439 299.098 148.191 300.273C149.952 301.447 151.307 303.152 152.254 305.386C153.201 307.612 153.669 310.311 153.66 313.483C153.66 316.674 153.186 319.402 152.239 321.665C151.302 323.928 149.957 325.656 148.205 326.849C146.453 328.043 144.356 328.639 141.913 328.639ZM141.913 323.54C143.579 323.54 144.91 322.702 145.904 321.026C146.898 319.349 147.391 316.835 147.381 313.483C147.381 311.277 147.154 309.439 146.7 307.972C146.254 306.504 145.62 305.401 144.796 304.662C143.982 303.923 143.021 303.554 141.913 303.554C140.255 303.554 138.93 304.383 137.935 306.04C136.941 307.697 136.439 310.178 136.43 313.483C136.43 315.718 136.652 317.583 137.097 319.08C137.552 320.566 138.191 321.684 139.015 322.432C139.839 323.17 140.805 323.54 141.913 323.54ZM163.507 324.023L163.351 325.585C163.228 326.835 162.991 328.08 162.641 329.321C162.3 330.571 161.94 331.703 161.561 332.716C161.192 333.729 160.893 334.525 160.666 335.102H156.746C156.888 334.544 157.082 333.762 157.328 332.759C157.574 331.764 157.806 330.647 158.024 329.406C158.242 328.166 158.379 326.902 158.436 325.614L158.507 324.023H163.507ZM168.543 322.886V318.043L180.688 298.909H184.864V305.614H182.392L174.736 317.73V317.957H191.994V322.886H168.543ZM182.506 328V321.409L182.619 319.264V298.909H188.386V328H182.506ZM206.717 328.398C204.71 328.398 202.92 328.028 201.348 327.29C199.786 326.551 198.545 325.533 197.626 324.236C196.708 322.938 196.23 321.452 196.192 319.776H202.158C202.224 320.902 202.697 321.816 203.578 322.517C204.459 323.218 205.505 323.568 206.717 323.568C207.683 323.568 208.536 323.355 209.274 322.929C210.022 322.493 210.605 321.892 211.021 321.125C211.447 320.348 211.661 319.458 211.661 318.455C211.661 317.432 211.443 316.532 211.007 315.756C210.581 314.979 209.989 314.373 209.232 313.938C208.474 313.502 207.607 313.279 206.632 313.27C205.78 313.27 204.951 313.445 204.146 313.795C203.351 314.146 202.731 314.624 202.286 315.23L196.817 314.25L198.195 298.909H215.979V303.938H203.266L202.513 311.224H202.683C203.195 310.505 203.966 309.908 204.999 309.435C206.031 308.961 207.186 308.724 208.464 308.724C210.216 308.724 211.779 309.136 213.152 309.96C214.525 310.784 215.609 311.916 216.405 313.355C217.2 314.785 217.593 316.433 217.584 318.298C217.593 320.259 217.139 322.001 216.22 323.526C215.311 325.041 214.037 326.234 212.399 327.105C210.77 327.967 208.876 328.398 206.717 328.398ZM233.28 328.639C230.837 328.63 228.734 328.028 226.973 326.835C225.221 325.642 223.872 323.914 222.925 321.651C221.987 319.387 221.523 316.665 221.533 313.483C221.533 310.311 222.001 307.607 222.939 305.372C223.886 303.137 225.235 301.437 226.987 300.273C228.749 299.098 230.846 298.511 233.28 298.511C235.714 298.511 237.806 299.098 239.558 300.273C241.32 301.447 242.674 303.152 243.621 305.386C244.568 307.612 245.036 310.311 245.027 313.483C245.027 316.674 244.554 319.402 243.607 321.665C242.669 323.928 241.324 325.656 239.572 326.849C237.821 328.043 235.723 328.639 233.28 328.639ZM233.28 323.54C234.946 323.54 236.277 322.702 237.271 321.026C238.266 319.349 238.758 316.835 238.749 313.483C238.749 311.277 238.521 309.439 238.067 307.972C237.622 306.504 236.987 305.401 236.163 304.662C235.349 303.923 234.388 303.554 233.28 303.554C231.623 303.554 230.297 304.383 229.303 306.04C228.308 307.697 227.806 310.178 227.797 313.483C227.797 315.718 228.019 317.583 228.464 319.08C228.919 320.566 229.558 321.684 230.382 322.432C231.206 323.17 232.172 323.54 233.28 323.54Z" fill="white"/>
<path d="M42.7614 364V349.455H47.8466C48.8598 349.455 49.6955 349.63 50.3537 349.98C51.0118 350.326 51.5019 350.792 51.8239 351.379C52.1458 351.962 52.3068 352.608 52.3068 353.318C52.3068 353.943 52.1955 354.459 51.973 354.866C51.7552 355.274 51.4664 355.596 51.1065 355.832C50.7514 356.069 50.3655 356.244 49.9489 356.358V356.5C50.3939 356.528 50.8414 356.685 51.2912 356.969C51.741 357.253 52.1174 357.66 52.4205 358.19C52.7235 358.721 52.875 359.369 52.875 360.136C52.875 360.866 52.7093 361.521 52.3778 362.104C52.0464 362.686 51.5232 363.148 50.8082 363.489C50.0933 363.83 49.1629 364 48.017 364H42.7614ZM44.5227 362.438H48.017C49.1676 362.438 49.9844 362.215 50.4673 361.77C50.955 361.32 51.1989 360.776 51.1989 360.136C51.1989 359.644 51.0734 359.189 50.8224 358.773C50.5715 358.351 50.214 358.015 49.75 357.764C49.286 357.509 48.7367 357.381 48.1023 357.381H44.5227V362.438ZM44.5227 355.847H47.7898C48.3201 355.847 48.7983 355.742 49.2244 355.534C49.6553 355.326 49.9962 355.032 50.2472 354.653C50.5028 354.275 50.6307 353.83 50.6307 353.318C50.6307 352.679 50.4081 352.137 49.9631 351.692C49.518 351.242 48.8125 351.017 47.8466 351.017H44.5227V355.847ZM58.7521 364.256C58.0608 364.256 57.4335 364.125 56.87 363.865C56.3066 363.6 55.8591 363.219 55.5277 362.722C55.1963 362.22 55.0305 361.614 55.0305 360.903C55.0305 360.278 55.1536 359.772 55.3999 359.384C55.6461 358.991 55.9751 358.683 56.3871 358.46C56.799 358.238 57.2536 358.072 57.7507 357.963C58.2526 357.849 58.7569 357.759 59.2635 357.693C59.9264 357.608 60.4638 357.544 60.8757 357.501C61.2924 357.454 61.5954 357.376 61.7848 357.267C61.9789 357.158 62.076 356.969 62.076 356.699V356.642C62.076 355.941 61.8842 355.397 61.5007 355.009C61.1219 354.62 60.5466 354.426 59.7749 354.426C58.9747 354.426 58.3473 354.601 57.8928 354.952C57.4382 355.302 57.1186 355.676 56.9339 356.074L55.343 355.506C55.6271 354.843 56.0059 354.327 56.4794 353.957C56.9576 353.583 57.4785 353.323 58.0419 353.176C58.6101 353.025 59.1688 352.949 59.718 352.949C60.0684 352.949 60.4709 352.991 60.9254 353.077C61.3847 353.157 61.8274 353.325 62.2536 353.581C62.6844 353.837 63.0419 354.223 63.326 354.739C63.6101 355.255 63.7521 355.946 63.7521 356.812V364H62.076V362.523H61.9908C61.8771 362.759 61.6877 363.013 61.4226 363.283C61.1574 363.553 60.8047 363.782 60.3643 363.972C59.924 364.161 59.3866 364.256 58.7521 364.256ZM59.0078 362.75C59.6707 362.75 60.2294 362.62 60.6839 362.359C61.1432 362.099 61.4889 361.763 61.7209 361.351C61.9576 360.939 62.076 360.506 62.076 360.051V358.517C62.005 358.602 61.8487 358.68 61.6072 358.751C61.3705 358.818 61.0959 358.877 60.7834 358.929C60.4756 358.976 60.175 359.019 59.8814 359.057C59.5926 359.09 59.3582 359.118 59.1783 359.142C58.7427 359.199 58.3355 359.291 57.9567 359.419C57.5826 359.542 57.2796 359.729 57.0476 359.98C56.8203 360.226 56.7067 360.562 56.7067 360.989C56.7067 361.571 56.9221 362.011 57.353 362.31C57.7886 362.603 58.3402 362.75 59.0078 362.75ZM68.4876 349.455V364H66.8114V349.455H68.4876ZM74.7678 364.256C74.0765 364.256 73.4491 364.125 72.8857 363.865C72.3222 363.6 71.8748 363.219 71.5433 362.722C71.2119 362.22 71.0462 361.614 71.0462 360.903C71.0462 360.278 71.1693 359.772 71.4155 359.384C71.6617 358.991 71.9908 358.683 72.4027 358.46C72.8146 358.238 73.2692 358.072 73.7663 357.963C74.2682 357.849 74.7725 357.759 75.2791 357.693C75.942 357.608 76.4794 357.544 76.8913 357.501C77.308 357.454 77.611 357.376 77.8004 357.267C77.9946 357.158 78.0916 356.969 78.0916 356.699V356.642C78.0916 355.941 77.8999 355.397 77.5163 355.009C77.1375 354.62 76.5623 354.426 75.7905 354.426C74.9903 354.426 74.3629 354.601 73.9084 354.952C73.4538 355.302 73.1342 355.676 72.9496 356.074L71.3587 355.506C71.6428 354.843 72.0215 354.327 72.495 353.957C72.9732 353.583 73.4941 353.323 74.0575 353.176C74.6257 353.025 75.1844 352.949 75.7337 352.949C76.084 352.949 76.4865 352.991 76.9411 353.077C77.4003 353.157 77.843 353.325 78.2692 353.581C78.7 353.837 79.0575 354.223 79.3416 354.739C79.6257 355.255 79.7678 355.946 79.7678 356.812V364H78.0916V362.523H78.0064C77.8928 362.759 77.7034 363.013 77.4382 363.283C77.1731 363.553 76.8203 363.782 76.38 363.972C75.9396 364.161 75.4022 364.256 74.7678 364.256ZM75.0234 362.75C75.6863 362.75 76.245 362.62 76.6996 362.359C77.1589 362.099 77.5045 361.763 77.7365 361.351C77.9732 360.939 78.0916 360.506 78.0916 360.051V358.517C78.0206 358.602 77.8643 358.68 77.6229 358.751C77.3861 358.818 77.1115 358.877 76.799 358.929C76.4912 358.976 76.1906 359.019 75.897 359.057C75.6082 359.09 75.3738 359.118 75.1939 359.142C74.7583 359.199 74.3511 359.291 73.9723 359.419C73.5982 359.542 73.2952 359.729 73.0632 359.98C72.8359 360.226 72.7223 360.562 72.7223 360.989C72.7223 361.571 72.9377 362.011 73.3686 362.31C73.8042 362.603 74.3558 362.75 75.0234 362.75ZM84.5032 357.438V364H82.8271V353.091H84.4464V354.795H84.5884C84.8441 354.241 85.2324 353.796 85.7532 353.46C86.274 353.119 86.9464 352.949 87.7702 352.949C88.5089 352.949 89.1552 353.1 89.7092 353.403C90.2631 353.702 90.694 354.156 91.0018 354.767C91.3095 355.373 91.4634 356.14 91.4634 357.068V364H89.7873V357.182C89.7873 356.325 89.5647 355.657 89.1197 355.179C88.6746 354.696 88.0638 354.455 87.2873 354.455C86.7522 354.455 86.274 354.571 85.8526 354.803C85.436 355.035 85.1069 355.373 84.8654 355.818C84.6239 356.263 84.5032 356.803 84.5032 357.438ZM98.9581 364.227C97.9354 364.227 97.0547 363.986 96.3161 363.503C95.5774 363.02 95.0092 362.355 94.6115 361.507C94.2138 360.66 94.0149 359.691 94.0149 358.602C94.0149 357.494 94.2185 356.517 94.6257 355.669C95.0376 354.817 95.6106 354.152 96.3445 353.673C97.0831 353.19 97.9448 352.949 98.9297 352.949C99.6967 352.949 100.388 353.091 101.004 353.375C101.619 353.659 102.123 354.057 102.516 354.568C102.909 355.08 103.153 355.676 103.248 356.358H101.572C101.444 355.861 101.16 355.42 100.719 355.037C100.284 354.649 99.6967 354.455 98.9581 354.455C98.3047 354.455 97.7318 354.625 97.2393 354.966C96.7517 355.302 96.3705 355.778 96.0959 356.393C95.826 357.004 95.6911 357.722 95.6911 358.545C95.6911 359.388 95.8236 360.122 96.0888 360.747C96.3587 361.372 96.7375 361.857 97.2251 362.203C97.7176 362.549 98.2952 362.722 98.9581 362.722C99.3937 362.722 99.7891 362.646 100.144 362.494C100.499 362.343 100.8 362.125 101.046 361.841C101.292 361.557 101.468 361.216 101.572 360.818H103.248C103.153 361.462 102.919 362.042 102.545 362.558C102.175 363.07 101.685 363.477 101.075 363.78C100.469 364.078 99.763 364.227 98.9581 364.227ZM110.272 364.227C109.221 364.227 108.314 363.995 107.552 363.531C106.794 363.062 106.21 362.409 105.798 361.571C105.39 360.728 105.187 359.748 105.187 358.631C105.187 357.513 105.39 356.528 105.798 355.676C106.21 354.819 106.782 354.152 107.516 353.673C108.255 353.19 109.117 352.949 110.102 352.949C110.67 352.949 111.231 353.044 111.785 353.233C112.339 353.422 112.843 353.73 113.298 354.156C113.752 354.578 114.114 355.136 114.384 355.832C114.654 356.528 114.789 357.385 114.789 358.403V359.114H106.38V357.665H113.085C113.085 357.049 112.961 356.5 112.715 356.017C112.474 355.534 112.128 355.153 111.678 354.874C111.233 354.594 110.708 354.455 110.102 354.455C109.434 354.455 108.856 354.62 108.369 354.952C107.886 355.278 107.514 355.705 107.254 356.23C106.993 356.756 106.863 357.319 106.863 357.92V358.886C106.863 359.71 107.005 360.409 107.289 360.982C107.578 361.55 107.978 361.983 108.489 362.281C109.001 362.575 109.595 362.722 110.272 362.722C110.712 362.722 111.11 362.66 111.465 362.537C111.825 362.409 112.135 362.22 112.396 361.969C112.656 361.713 112.857 361.396 112.999 361.017L114.619 361.472C114.448 362.021 114.162 362.504 113.759 362.92C113.357 363.332 112.86 363.654 112.268 363.886C111.676 364.114 111.011 364.227 110.272 364.227Z" fill="white"/>
<path d="M519.442 363.544V358.188C519.473 357.737 519.408 357.285 519.251 356.862C519.094 356.439 518.849 356.053 518.532 355.732C518.215 355.411 517.833 355.162 517.412 355C516.991 354.839 516.54 354.769 516.09 354.796C515.5 354.757 514.912 354.878 514.385 355.145C513.858 355.412 513.412 355.815 513.094 356.313C512.804 355.83 512.39 355.434 511.894 355.167C511.398 354.9 510.84 354.772 510.277 354.796C509.787 354.771 509.299 354.875 508.861 355.097C508.423 355.32 508.051 355.653 507.781 356.063V355.01H505.927V363.544H507.799V358.813C507.758 358.521 507.783 358.223 507.871 357.942C507.959 357.661 508.108 357.403 508.307 357.186C508.507 356.969 508.752 356.799 509.024 356.689C509.297 356.578 509.591 356.529 509.885 356.546C511.115 356.546 511.739 357.349 511.739 358.795V363.544H513.611V358.813C513.574 358.521 513.601 358.225 513.69 357.945C513.779 357.665 513.928 357.408 514.127 357.192C514.325 356.976 514.569 356.806 514.841 356.695C515.112 356.583 515.404 356.532 515.697 356.546C516.963 356.546 517.569 357.349 517.569 358.795V363.544H519.442ZM529.89 355.01H528.035V356.045C527.719 355.637 527.309 355.311 526.841 355.093C526.372 354.876 525.859 354.774 525.343 354.796C524.194 354.852 523.111 355.349 522.318 356.183C521.524 357.017 521.082 358.125 521.082 359.277C521.082 360.429 521.524 361.536 522.318 362.37C523.111 363.205 524.194 363.701 525.343 363.758C525.859 363.78 526.372 363.678 526.841 363.46C527.309 363.243 527.719 362.917 528.035 362.508V363.544H529.89V355.01ZM522.99 359.277C523.019 358.773 523.194 358.289 523.494 357.884C523.794 357.479 524.206 357.171 524.68 356.998C525.153 356.824 525.666 356.794 526.156 356.909C526.647 357.024 527.093 357.281 527.439 357.647C527.786 358.013 528.017 358.473 528.106 358.969C528.195 359.466 528.137 359.977 527.938 360.441C527.74 360.905 527.411 361.3 526.991 361.579C526.571 361.857 526.079 362.006 525.575 362.008C525.222 362.013 524.872 361.944 524.546 361.807C524.221 361.669 523.928 361.466 523.685 361.209C523.442 360.953 523.255 360.648 523.135 360.316C523.016 359.983 522.966 359.629 522.99 359.277ZM569.567 354.786C570.193 354.78 570.814 354.896 571.395 355.129C571.937 355.345 572.432 355.666 572.85 356.073C573.262 356.478 573.589 356.961 573.811 357.495C574.275 358.637 574.275 359.916 573.811 361.059C573.589 361.592 573.262 362.076 572.85 362.48C572.432 362.887 571.937 363.208 571.395 363.425C570.219 363.882 568.914 363.882 567.738 363.425C567.197 363.209 566.704 362.888 566.287 362.48C565.877 362.074 565.552 361.591 565.33 361.059C564.868 359.916 564.868 358.638 565.33 357.495C565.552 356.962 565.878 356.479 566.287 356.073C566.704 355.666 567.197 355.345 567.738 355.129C568.319 354.896 568.94 354.78 569.567 354.786ZM569.567 356.541C569.204 356.538 568.844 356.606 568.508 356.742C568.191 356.869 567.903 357.06 567.662 357.303C567.42 357.551 567.229 357.845 567.102 358.167C566.829 358.882 566.829 359.672 567.102 360.386C567.229 360.709 567.42 361.003 567.662 361.251C567.903 361.494 568.191 361.685 568.508 361.812C569.188 362.079 569.945 362.079 570.625 361.812C570.944 361.684 571.233 361.493 571.475 361.251C571.72 361.003 571.912 360.71 572.041 360.386C572.314 359.672 572.314 358.882 572.041 358.167C571.912 357.844 571.72 357.55 571.475 357.303C571.233 357.061 570.943 356.87 570.625 356.742C570.289 356.606 569.929 356.538 569.567 356.541ZM539.98 359.277C539.962 356.617 538.321 354.796 535.932 354.796C534.776 354.857 533.688 355.363 532.897 356.21C532.105 357.057 531.672 358.177 531.688 359.337C531.705 360.496 532.169 361.604 532.983 362.429C533.798 363.253 534.899 363.729 536.057 363.758C537.329 363.803 538.573 363.377 539.552 362.562L538.642 361.187C537.938 361.752 537.066 362.066 536.164 362.079C535.551 362.131 534.943 361.942 534.467 361.552C533.991 361.162 533.685 360.602 533.614 359.991H539.944C539.962 359.759 539.98 359.527 539.98 359.277ZM533.632 358.527C533.665 357.954 533.92 357.417 534.343 357.03C534.766 356.643 535.324 356.437 535.897 356.456C536.457 356.445 536.998 356.657 537.403 357.045C537.807 357.433 538.041 357.966 538.054 358.527H533.632ZM547.788 357.188C546.979 356.722 546.065 356.47 545.132 356.456C544.116 356.456 543.509 356.831 543.509 357.456C543.509 358.027 544.151 358.188 544.954 358.295L545.827 358.42C547.682 358.687 548.805 359.473 548.805 360.973C548.805 362.597 547.378 363.758 544.918 363.758C543.601 363.794 542.307 363.406 541.227 362.651L542.101 361.205C542.919 361.812 543.918 362.127 544.936 362.098C546.202 362.098 546.879 361.723 546.879 361.062C546.879 360.58 546.398 360.312 545.382 360.169L544.508 360.045C542.6 359.777 541.566 358.92 541.566 357.527C541.566 355.831 542.957 354.796 545.114 354.796C546.335 354.754 547.541 355.063 548.591 355.688L547.788 357.188ZM556.698 356.706H553.667V360.562C553.667 361.419 553.971 361.99 554.898 361.99C555.476 361.971 556.041 361.805 556.538 361.508L557.073 363.097C556.378 363.531 555.574 363.76 554.755 363.758C552.562 363.758 551.795 362.58 551.795 360.598V356.706H550.066V355.01H551.795L551.795 352.421H553.667L553.667 355.01H556.698V356.706ZM563.116 354.796C563.565 354.797 564.012 354.876 564.435 355.028L563.864 356.777C563.496 356.63 563.102 356.558 562.706 356.563C561.493 356.563 560.887 357.349 560.887 358.759V363.544H559.033V355.01H560.869V356.045C561.097 355.654 561.425 355.331 561.821 355.111C562.216 354.891 562.663 354.782 563.116 354.796ZM575.953 362.301C576.068 362.301 576.182 362.323 576.289 362.368C576.391 362.411 576.484 362.473 576.563 362.55C576.642 362.628 576.704 362.72 576.748 362.821C576.793 362.925 576.816 363.037 576.816 363.15C576.816 363.263 576.793 363.376 576.748 363.48C576.704 363.58 576.641 363.672 576.563 363.749C576.484 363.827 576.391 363.889 576.289 363.932C576.183 363.978 576.068 364.001 575.953 364C575.783 364.002 575.616 363.953 575.474 363.861C575.331 363.768 575.219 363.636 575.151 363.48C575.107 363.376 575.084 363.263 575.084 363.15C575.084 363.037 575.107 362.925 575.151 362.821C575.195 362.72 575.257 362.628 575.335 362.55C575.415 362.472 575.508 362.41 575.611 362.368C575.719 362.323 575.835 362.3 575.953 362.301ZM575.953 363.813C576.041 363.813 576.128 363.796 576.209 363.761C576.286 363.727 576.357 363.679 576.416 363.619C576.493 363.543 576.55 363.448 576.581 363.345C576.613 363.241 576.619 363.131 576.599 363.025C576.578 362.919 576.532 362.819 576.464 362.735C576.396 362.651 576.308 362.584 576.209 362.542C576.128 362.507 576.041 362.49 575.953 362.491C575.863 362.49 575.775 362.507 575.692 362.542C575.613 362.574 575.541 362.622 575.481 362.682C575.358 362.807 575.288 362.975 575.288 363.151C575.288 363.326 575.358 363.495 575.481 363.619C575.543 363.681 575.617 363.73 575.698 363.763C575.779 363.796 575.865 363.813 575.953 363.813ZM576.003 362.753C576.086 362.748 576.169 362.772 576.237 362.821C576.264 362.843 576.285 362.871 576.299 362.903C576.314 362.935 576.32 362.97 576.319 363.005C576.32 363.035 576.314 363.065 576.303 363.092C576.292 363.12 576.275 363.145 576.253 363.166C576.202 363.212 576.136 363.24 576.067 363.244L576.325 363.542H576.123L575.884 363.246H575.807V363.542H575.639V362.753H576.003ZM575.807 362.901V363.111H576.001C576.038 363.113 576.075 363.104 576.107 363.085C576.12 363.076 576.13 363.064 576.137 363.05C576.144 363.036 576.147 363.021 576.146 363.005C576.147 362.99 576.144 362.974 576.137 362.961C576.13 362.947 576.12 362.935 576.107 362.927C576.075 362.908 576.038 362.899 576.001 362.901H575.807Z" fill="white"/>
<path d="M554.062 289.881H525.94V340.482H554.062V289.881Z" fill="#7375CF"/>
<path d="M527.725 315.181C527.721 310.308 528.824 305.497 530.951 301.114C533.077 296.731 536.172 292.889 540.001 289.88C535.26 286.149 529.565 283.828 523.569 283.184C517.573 282.539 511.517 283.597 506.093 286.236C500.669 288.875 496.096 292.989 492.896 298.108C489.697 303.226 488 309.143 488 315.181C488 321.219 489.697 327.136 492.896 332.255C496.096 337.373 500.669 341.487 506.093 344.126C511.517 346.765 517.573 347.823 523.569 347.178C529.565 346.534 535.26 344.214 540.001 340.482C536.172 337.473 533.077 333.632 530.951 329.248C528.824 324.865 527.721 320.054 527.725 315.181Z" fill="#EB001B"/>
<path d="M588.934 335.123V334.087H589.351V333.876H588.288V334.087H588.706V335.123H588.934ZM590.996 335.123V333.874H590.671L590.296 334.733L589.921 333.874H589.596V335.123H589.826V334.181L590.177 334.993H590.415L590.767 334.178V335.123H590.996Z" fill="#00A2E5"/>
<path d="M592 315.181C592 321.219 590.304 327.136 587.104 332.255C583.905 337.373 579.332 341.487 573.908 344.126C568.484 346.765 562.428 347.823 556.432 347.178C550.436 346.534 544.742 344.214 540.001 340.482C543.826 337.47 546.919 333.628 549.045 329.245C551.171 324.863 552.276 320.054 552.276 315.181C552.276 310.309 551.171 305.5 549.045 301.117C546.919 296.734 543.826 292.892 540.001 289.88C544.742 286.149 550.436 283.828 556.432 283.184C562.428 282.539 568.484 283.597 573.908 286.236C579.332 288.875 583.905 292.989 587.104 298.108C590.304 303.226 592 309.143 592 315.181Z" fill="#00A2E5"/>
</g>
<defs>
<filter id="filter0_f_0_443" x="-163" y="73" width="367" height="367" filterUnits="userSpaceOnUse" color-interpolation-filters="sRGB">
<feFlood flood-opacity="0" result="BackgroundImageFix"/>
<feBlend mode="normal" in="SourceGraphic" in2="BackgroundImageFix" result="shape"/>
<feGaussianBlur stdDeviation="35" result="effect1_foregroundBlur_0_443"/>
</filter>
<filter id="filter1_f_0_443" x="390" y="-34" width="410" height="410" filterUnits="userSpaceOnUse" color-interpolation-filters="sRGB">
<feFlood flood-opacity="0" result="BackgroundImageFix"/>
<feBlend mode="normal" in="SourceGraphic" in2="BackgroundImageFix" result="shape"/>
<feGaussianBlur stdDeviation="40" result="effect1_foregroundBlur_0_443"/>
</filter>
<filter id="filter2_f_0_443" x="281" y="-205" width="450" height="450" filterUnits="userSpaceOnUse" color-interpolation-filters="sRGB">
<feFlood flood-opacity="0" result="BackgroundImageFix"/>
<feBlend mode="normal" in="SourceGraphic" in2="BackgroundImageFix" result="shape"/>
<feGaussianBlur stdDeviation="50" result="effect1_foregroundBlur_0_443"/>
</filter>
<filter id="filter3_f_0_443" x="47" y="-234" width="549" height="555" filterUnits="userSpaceOnUse" color-interpolation-filters="sRGB">
<feFlood flood-opacity="0" result="BackgroundImageFix"/>
<feBlend mode="normal" in="SourceGraphic" in2="BackgroundImageFix" result="shape"/>
<feGaussianBlur stdDeviation="70" result="effect1_foregroundBlur_0_443"/>
</filter>
<linearGradient id="paint0_linear_0_443" x1="-26" y1="-28" x2="573" y2="339.5" gradientUnits="userSpaceOnUse">
<stop stop-color="#9CEBF6"/>
<stop offset="1" stop-color="#7847E9"/>
</linearGradient>
<clipPath id="clip0_0_443">
<rect width="652" height="414" rx="30" fill="white"/>
</clipPath>
</defs>
</svg>
