<svg width="512" height="512" viewBox="0 0 512 512" fill="none" xmlns="http://www.w3.org/2000/svg">
<path d="M154.789 453.009V426.676C154.943 424.462 154.624 422.239 153.852 420.158C153.079 418.076 151.872 416.183 150.311 414.605C148.749 413.027 146.869 411.8 144.796 411.005C142.722 410.211 140.504 409.868 138.287 409.999C135.387 409.81 132.489 410.403 129.895 411.715C127.302 413.028 125.107 415.011 123.541 417.46C122.114 415.084 120.073 413.137 117.632 411.824C115.191 410.511 112.441 409.881 109.672 409.999C107.259 409.878 104.855 410.389 102.7 411.482C100.545 412.575 98.7122 414.212 97.384 416.231V411.053H88.2549V453.009H97.4714V429.749C97.2721 428.314 97.3931 426.852 97.8258 425.469C98.2585 424.086 98.9922 422.816 99.974 421.75C100.956 420.685 102.162 419.85 103.505 419.305C104.848 418.761 106.294 418.521 107.741 418.602C113.798 418.602 116.87 422.552 116.87 429.661V453.009H126.087V429.749C125.903 428.316 126.034 426.861 126.472 425.484C126.911 424.108 127.645 422.844 128.624 421.782C129.602 420.719 130.802 419.884 132.138 419.335C133.474 418.786 134.914 418.535 136.357 418.602C142.588 418.602 145.573 422.552 145.573 429.661V453.009H154.789ZM206.226 432.03V411.053H197.097V416.143C195.539 414.135 193.522 412.53 191.216 411.461C188.91 410.392 186.382 409.891 183.843 409.999C178.186 410.276 172.853 412.719 168.948 416.82C165.043 420.922 162.865 426.368 162.865 432.031C162.865 437.694 165.043 443.141 168.948 447.242C172.853 451.344 178.186 453.786 183.843 454.063C186.382 454.172 188.91 453.671 191.216 452.601C193.522 451.532 195.539 449.927 197.097 447.918V453.009H206.226V432.03ZM172.257 432.03C172.399 429.555 173.262 427.175 174.74 425.183C176.218 423.192 178.247 421.677 180.576 420.825C182.905 419.974 185.432 419.822 187.846 420.389C190.26 420.956 192.456 422.218 194.161 424.018C195.867 425.818 197.009 428.078 197.446 430.519C197.882 432.96 197.595 435.475 196.62 437.755C195.644 440.035 194.022 441.979 191.955 443.348C189.887 444.718 187.464 445.452 184.984 445.46C183.246 445.484 181.522 445.147 179.92 444.471C178.319 443.795 176.875 442.795 175.679 441.533C174.483 440.271 173.562 438.775 172.973 437.14C172.384 435.505 172.14 433.765 172.257 432.03ZM401.558 409.95C404.641 409.92 407.7 410.493 410.562 411.637C413.23 412.702 415.664 414.28 417.725 416.281C419.753 418.271 421.362 420.647 422.456 423.269C424.736 428.888 424.736 435.174 422.456 440.793C421.362 443.415 419.753 445.792 417.725 447.782C415.664 449.783 413.23 451.361 410.562 452.425C404.771 454.675 398.346 454.675 392.555 452.425C389.891 451.364 387.464 449.786 385.413 447.782C383.396 445.787 381.796 443.411 380.703 440.793C378.426 435.173 378.426 428.888 380.703 423.269C381.796 420.651 383.397 418.276 385.413 416.281C387.464 414.277 389.891 412.699 392.555 411.637C395.417 410.493 398.476 409.92 401.558 409.95ZM401.558 418.581C399.773 418.565 398.002 418.9 396.346 419.567C394.785 420.193 393.368 421.133 392.184 422.327C390.991 423.546 390.052 424.991 389.423 426.577C388.079 430.089 388.079 433.974 389.423 437.486C390.052 439.072 390.99 440.517 392.184 441.736C393.368 442.93 394.784 443.87 396.346 444.496C399.697 445.81 403.42 445.81 406.771 444.496C408.337 443.866 409.76 442.927 410.956 441.736C412.159 440.521 413.106 439.075 413.739 437.486C415.082 433.974 415.082 430.089 413.739 426.577C413.106 424.988 412.159 423.542 410.956 422.327C409.76 421.135 408.337 420.197 406.771 419.567C405.115 418.9 403.344 418.565 401.558 418.581ZM255.899 432.03C255.812 418.952 247.736 409.999 235.974 409.999C230.281 410.298 224.924 412.79 221.029 416.953C217.133 421.116 215.002 426.626 215.081 432.327C215.161 438.027 217.445 443.476 221.455 447.528C225.465 451.581 230.889 453.923 236.589 454.063C242.851 454.283 248.975 452.189 253.793 448.182L249.316 441.423C245.85 444.201 241.557 445.745 237.115 445.811C234.099 446.065 231.102 445.135 228.759 443.219C226.417 441.302 224.912 438.549 224.563 435.542H255.724C255.812 434.401 255.899 433.26 255.899 432.03ZM224.651 428.344C224.811 425.528 226.067 422.885 228.151 420.983C230.234 419.08 232.979 418.068 235.799 418.162C238.556 418.109 241.222 419.15 243.213 421.059C245.204 422.967 246.357 425.587 246.42 428.344H224.651ZM294.343 421.762C290.36 419.47 285.859 418.232 281.265 418.162C276.261 418.162 273.277 420.006 273.277 423.078C273.277 425.887 276.437 426.676 280.387 427.203L284.688 427.817C293.817 429.134 299.346 432.996 299.346 440.369C299.346 448.357 292.324 454.063 280.211 454.063C273.728 454.242 267.359 452.334 262.042 448.62L266.343 441.511C270.371 444.498 275.287 446.044 280.299 445.9C286.531 445.9 289.867 444.057 289.867 440.808C289.867 438.439 287.496 437.122 282.494 436.42L278.192 435.806C268.801 434.489 263.71 430.276 263.71 423.429C263.71 415.09 270.556 409.999 281.177 409.999C287.185 409.792 293.126 411.315 298.294 414.388L294.343 421.762ZM338.207 419.391H323.286V438.352C323.286 442.564 324.778 445.373 329.342 445.373C332.191 445.279 334.97 444.463 337.418 443.003L340.05 450.816C336.628 452.95 332.673 454.075 328.64 454.063C317.844 454.063 314.069 448.27 314.069 438.526V419.391H305.555V411.053H314.069L314.067 398.325H323.283L323.286 411.053H338.207V419.391ZM369.799 409.999C372.014 410.008 374.211 410.394 376.296 411.141L373.486 419.743C371.672 419.02 369.734 418.662 367.781 418.689C361.812 418.689 358.827 422.551 358.827 429.485V453.009H349.699V411.053H358.74V416.143C359.86 414.219 361.479 412.632 363.425 411.551C365.372 410.47 367.574 409.933 369.799 409.999ZM432.998 446.902C433.566 446.898 434.128 447.01 434.651 447.23C435.155 447.44 435.613 447.744 436.003 448.125C436.389 448.506 436.698 448.958 436.913 449.456C437.133 449.968 437.246 450.519 437.246 451.075C437.246 451.632 437.133 452.183 436.913 452.695C436.697 453.191 436.388 453.641 436.003 454.02C435.612 454.402 435.154 454.707 434.651 454.92C434.129 455.144 433.566 455.258 432.998 455.254C432.162 455.262 431.342 455.024 430.64 454.569C429.938 454.114 429.386 453.462 429.053 452.695C428.834 452.183 428.721 451.632 428.721 451.075C428.721 450.519 428.834 449.968 429.053 449.456C429.267 448.958 429.575 448.507 429.959 448.125C430.348 447.741 430.809 447.437 431.315 447.23C431.849 447.009 432.421 446.898 432.998 446.902ZM432.998 454.332C433.431 454.336 433.86 454.249 434.258 454.076C434.639 453.911 434.986 453.675 435.28 453.381C435.658 453.005 435.937 452.542 436.093 452.033C436.249 451.523 436.278 450.984 436.177 450.461C436.076 449.938 435.849 449.448 435.514 449.033C435.179 448.619 434.748 448.293 434.258 448.085C433.86 447.915 433.431 447.83 432.998 447.833C432.557 447.83 432.121 447.915 431.714 448.085C431.326 448.244 430.973 448.479 430.675 448.774C430.068 449.387 429.727 450.215 429.727 451.077C429.727 451.94 430.068 452.768 430.675 453.381C430.981 453.684 431.343 453.925 431.742 454.088C432.14 454.251 432.567 454.335 432.998 454.332ZM433.244 449.122C433.655 449.095 434.063 449.214 434.396 449.456C434.529 449.565 434.634 449.704 434.704 449.861C434.774 450.018 434.807 450.189 434.8 450.361C434.804 450.509 434.778 450.655 434.723 450.792C434.667 450.928 434.584 451.052 434.478 451.154C434.223 451.38 433.901 451.515 433.561 451.538L434.83 453.001H433.838L432.661 451.548H432.282V453.001H431.453V449.122H433.244ZM432.282 449.85V450.884H433.234C433.417 450.893 433.599 450.848 433.756 450.755C433.82 450.712 433.872 450.653 433.906 450.584C433.94 450.515 433.955 450.438 433.95 450.361C433.954 450.286 433.939 450.211 433.905 450.143C433.871 450.076 433.82 450.018 433.756 449.977C433.598 449.885 433.417 449.841 433.234 449.85H432.282Z" fill="black"/>
<path d="M325.227 90.8285H186.78V339.622H325.227V90.8285Z" fill="#7375CF"/>
<path d="M195.571 215.225C195.549 191.265 200.979 167.613 211.449 146.061C221.919 124.509 237.155 105.622 256.004 90.8286C232.663 72.4817 204.63 61.072 175.111 57.9037C145.591 54.7353 115.776 59.9362 89.0726 72.9118C62.3693 85.8874 39.8554 106.114 24.1042 131.28C8.353 156.446 0 185.536 0 215.225C0 244.914 8.353 274.004 24.1042 299.17C39.8554 324.336 62.3693 344.563 89.0726 357.539C115.776 370.514 145.591 375.715 175.111 372.547C204.63 369.379 232.663 357.969 256.004 339.622C237.155 324.829 221.919 305.941 211.449 284.389C200.979 262.837 195.549 239.186 195.571 215.225Z" fill="#EB001B"/>
<path d="M496.904 313.271V308.178H498.958V307.14H493.728V308.178H495.783V313.271H496.904ZM507.06 313.271V307.13H505.456L503.612 311.354L501.767 307.13H500.163V313.271H501.295V308.639L503.025 312.633H504.199L505.928 308.629V313.271H507.06Z" fill="#00A2E5"/>
<path d="M512 215.225C512.001 244.914 503.649 274.004 487.899 299.17C472.148 324.336 449.635 344.563 422.932 357.539C396.23 370.514 366.415 375.715 336.896 372.547C307.377 369.379 279.345 357.969 256.004 339.622C274.836 324.814 290.06 305.923 300.529 284.375C310.997 262.826 316.436 239.182 316.436 215.225C316.436 191.268 310.997 167.624 300.529 146.076C290.06 124.527 274.836 105.637 256.004 90.8286C279.345 72.4816 307.377 61.0719 336.896 57.9036C366.415 54.7353 396.23 59.9363 422.932 72.912C449.635 85.8877 472.148 106.115 487.899 131.281C503.649 156.447 512.001 185.537 512 215.225Z" fill="#00A2E5"/>
</svg>
