<svg width="652" height="414" viewBox="0 0 652 414" fill="none" xmlns="http://www.w3.org/2000/svg">
<g clip-path="url(#clip0_0_194)">
<rect width="652" height="414" rx="30" fill="#318DD1"/>
<path opacity="0.2" d="M547.312 336.49C368.37 287.053 19.3146 168.839 54.6272 91.4733C98.7679 -5.2336 306.926 84.7249 316.434 90.0287M316.434 90.0287C325.943 95.3324 501.12 179.203 570.987 183.607L570.986 265.627C425.194 219.384 134.799 110.909 139.557 46.9494C142.212 11.2411 159.383 -9.31788 200.982 -9.36411M316.434 90.0287C204.247 40.9792 192.721 3.32954 200.982 -9.36411M200.982 -9.36411C233.894 -9.40067 269.935 -2.57036 294.774 4.33122L200.982 -9.36411Z" stroke="#355070" stroke-width="2"/>
<path d="M100 70C100 64.0666 98.2405 58.2664 94.9441 53.3329C91.6476 48.3994 86.9623 44.5542 81.4805 42.2836C75.9987 40.013 69.9667 39.4189 64.1473 40.5764C58.3279 41.734 52.9824 44.5912 48.7868 48.7868C44.5912 52.9824 41.734 58.3279 40.5764 64.1473C39.4189 69.9667 40.013 75.9987 42.2836 81.4805C44.5542 86.9623 48.3994 91.6476 53.3329 94.9441C58.2664 98.2405 64.0666 100 70 100V70H100Z" fill="white"/>
<path d="M86 72C83.2311 72 80.5243 72.8211 78.222 74.3594C75.9197 75.8978 74.1253 78.0843 73.0657 80.6424C72.0061 83.2006 71.7288 86.0155 72.269 88.7313C72.8092 91.447 74.1426 93.9416 76.1005 95.8995C78.0584 97.8574 80.553 99.1908 83.2687 99.731C85.9845 100.271 88.7994 99.9939 91.3576 98.9343C93.9157 97.8747 96.1022 96.0803 97.6406 93.778C99.1789 91.4757 100 88.7689 100 86H86V72Z" fill="white"/>
<rect y="242" width="652" height="172" fill="#4FC3F7"/>
<path d="M47 179L48.5716 184.182H53.6574L49.5429 187.385L51.1145 192.568L47 189.365L42.8855 192.568L44.4571 187.385L40.3426 184.182H45.4284L47 179Z" fill="white"/>
<path d="M64 179L65.5716 184.182H70.6574L66.5429 187.385L68.1145 192.568L64 189.365L59.8855 192.568L61.4571 187.385L57.3426 184.182H62.4284L64 179Z" fill="white"/>
<path d="M81 179L82.5716 184.182H87.6574L83.5429 187.385L85.1145 192.568L81 189.365L76.8855 192.568L78.4571 187.385L74.3426 184.182H79.4284L81 179Z" fill="white"/>
<path d="M98 179L99.5716 184.182H104.657L100.543 187.385L102.114 192.568L98 189.365L93.8855 192.568L95.4571 187.385L91.3426 184.182H96.4284L98 179Z" fill="white"/>
<path d="M122 179L123.572 184.182H128.657L124.543 187.385L126.114 192.568L122 189.365L117.886 192.568L119.457 187.385L115.343 184.182H120.428L122 179Z" fill="white"/>
<path d="M139 179L140.572 184.182H145.657L141.543 187.385L143.114 192.568L139 189.365L134.886 192.568L136.457 187.385L132.343 184.182H137.428L139 179Z" fill="white"/>
<path d="M156 179L157.572 184.182H162.657L158.543 187.385L160.114 192.568L156 189.365L151.886 192.568L153.457 187.385L149.343 184.182H154.428L156 179Z" fill="white"/>
<path d="M173 179L174.572 184.182H179.657L175.543 187.385L177.114 192.568L173 189.365L168.886 192.568L170.457 187.385L166.343 184.182H171.428L173 179Z" fill="white"/>
<path d="M197 179L198.572 184.182H203.657L199.543 187.385L201.114 192.568L197 189.365L192.886 192.568L194.457 187.385L190.343 184.182H195.428L197 179Z" fill="white"/>
<path d="M214 179L215.572 184.182H220.657L216.543 187.385L218.114 192.568L214 189.365L209.886 192.568L211.457 187.385L207.343 184.182H212.428L214 179Z" fill="white"/>
<path d="M231 179L232.572 184.182H237.657L233.543 187.385L235.114 192.568L231 189.365L226.886 192.568L228.457 187.385L224.343 184.182H229.428L231 179Z" fill="white"/>
<path d="M248 179L249.572 184.182H254.657L250.543 187.385L252.114 192.568L248 189.365L243.886 192.568L245.457 187.385L241.343 184.182H246.428L248 179Z" fill="white"/>
<path d="M276.31 199.348C274.603 199.348 273.079 199.054 271.737 198.466C270.402 197.877 269.346 197.061 268.567 196.017C267.797 194.965 267.382 193.747 267.324 192.363H271.227C271.277 193.117 271.529 193.772 271.985 194.327C272.449 194.874 273.054 195.296 273.8 195.594C274.545 195.893 275.374 196.042 276.286 196.042C277.288 196.042 278.175 195.868 278.945 195.52C279.724 195.172 280.333 194.687 280.772 194.066C281.212 193.436 281.431 192.711 281.431 191.891C281.431 191.037 281.212 190.287 280.772 189.641C280.342 188.986 279.708 188.473 278.871 188.1C278.042 187.727 277.04 187.54 275.863 187.54H273.713V184.408H275.863C276.808 184.408 277.636 184.239 278.349 183.899C279.07 183.559 279.633 183.087 280.039 182.482C280.445 181.869 280.648 181.152 280.648 180.332C280.648 179.545 280.47 178.861 280.114 178.281C279.766 177.693 279.268 177.233 278.622 176.901C277.984 176.57 277.23 176.404 276.36 176.404C275.531 176.404 274.757 176.557 274.036 176.864C273.323 177.162 272.743 177.593 272.296 178.157C271.848 178.712 271.608 179.379 271.575 180.158H267.859C267.9 178.782 268.306 177.572 269.077 176.528C269.856 175.484 270.883 174.668 272.159 174.08C273.435 173.492 274.852 173.197 276.41 173.197C278.042 173.197 279.451 173.516 280.636 174.154C281.829 174.784 282.749 175.625 283.395 176.678C284.049 177.73 284.373 178.882 284.364 180.133C284.373 181.558 283.975 182.768 283.171 183.762C282.376 184.756 281.315 185.423 279.989 185.763V185.962C281.68 186.219 282.989 186.89 283.917 187.975C284.853 189.061 285.317 190.407 285.309 192.015C285.317 193.415 284.928 194.671 284.141 195.781C283.362 196.891 282.297 197.765 280.946 198.403C279.596 199.033 278.05 199.348 276.31 199.348ZM298.869 199.423C296.905 199.414 295.227 198.896 293.835 197.869C292.443 196.842 291.378 195.346 290.641 193.382C289.904 191.418 289.535 189.053 289.535 186.285C289.535 183.526 289.904 181.169 290.641 179.213C291.387 177.258 292.456 175.766 293.848 174.739C295.248 173.711 296.922 173.197 298.869 173.197C300.816 173.197 302.486 173.715 303.878 174.751C305.27 175.779 306.335 177.27 307.072 179.225C307.818 181.173 308.191 183.526 308.191 186.285C308.191 189.061 307.822 191.431 307.085 193.395C306.347 195.35 305.282 196.846 303.89 197.881C302.498 198.909 300.824 199.423 298.869 199.423ZM298.869 196.104C300.592 196.104 301.939 195.263 302.908 193.581C303.886 191.899 304.375 189.467 304.375 186.285C304.375 184.172 304.151 182.387 303.704 180.928C303.265 179.462 302.631 178.351 301.802 177.597C300.982 176.835 300.004 176.454 298.869 176.454C297.154 176.454 295.807 177.299 294.83 178.989C293.852 180.68 293.359 183.112 293.35 186.285C293.35 188.406 293.57 190.2 294.009 191.667C294.457 193.125 295.091 194.231 295.911 194.985C296.731 195.731 297.717 196.104 298.869 196.104ZM321.064 173.197C322.199 173.206 323.318 173.413 324.42 173.819C325.522 174.225 326.516 174.888 327.403 175.808C328.298 176.727 329.01 177.97 329.541 179.536C330.079 181.094 330.353 183.033 330.361 185.353C330.361 187.582 330.137 189.566 329.69 191.306C329.242 193.038 328.6 194.501 327.763 195.694C326.935 196.887 325.928 197.794 324.743 198.416C323.558 199.037 322.224 199.348 320.741 199.348C319.225 199.348 317.878 199.05 316.701 198.453C315.525 197.857 314.568 197.032 313.83 195.98C313.093 194.919 312.633 193.701 312.451 192.326H316.242C316.49 193.419 316.996 194.306 317.758 194.985C318.528 195.657 319.523 195.992 320.741 195.992C322.605 195.992 324.059 195.18 325.103 193.556C326.147 191.924 326.674 189.645 326.682 186.72H326.483C326.052 187.433 325.514 188.046 324.867 188.56C324.229 189.073 323.513 189.471 322.717 189.753C321.922 190.035 321.072 190.175 320.169 190.175C318.703 190.175 317.368 189.815 316.167 189.094C314.966 188.373 314.008 187.383 313.296 186.124C312.583 184.864 312.227 183.426 312.227 181.811C312.227 180.203 312.592 178.745 313.321 177.436C314.058 176.127 315.086 175.091 316.403 174.328C317.729 173.558 319.283 173.181 321.064 173.197ZM321.076 176.429C320.107 176.429 319.233 176.669 318.454 177.15C317.683 177.622 317.074 178.264 316.627 179.076C316.179 179.88 315.956 180.775 315.956 181.761C315.956 182.747 316.171 183.642 316.602 184.446C317.041 185.241 317.638 185.875 318.392 186.347C319.154 186.811 320.024 187.043 321.002 187.043C321.731 187.043 322.41 186.902 323.04 186.621C323.67 186.339 324.221 185.95 324.693 185.452C325.166 184.947 325.534 184.375 325.799 183.737C326.065 183.099 326.197 182.428 326.197 181.724C326.197 180.787 325.973 179.917 325.526 179.114C325.087 178.31 324.482 177.664 323.711 177.175C322.941 176.678 322.062 176.429 321.076 176.429ZM343.713 199.423C341.749 199.414 340.071 198.896 338.679 197.869C337.287 196.842 336.222 195.346 335.485 193.382C334.747 191.418 334.379 189.053 334.379 186.285C334.379 183.526 334.747 181.169 335.485 179.213C336.23 177.258 337.299 175.766 338.691 174.739C340.092 173.711 341.766 173.197 343.713 173.197C345.66 173.197 347.33 173.715 348.722 174.751C350.114 175.779 351.178 177.27 351.916 179.225C352.662 181.173 353.034 183.526 353.034 186.285C353.034 189.061 352.666 191.431 351.928 193.395C351.191 195.35 350.126 196.846 348.734 197.881C347.342 198.909 345.668 199.423 343.713 199.423ZM343.713 196.104C345.436 196.104 346.783 195.263 347.752 193.581C348.73 191.899 349.219 189.467 349.219 186.285C349.219 184.172 348.995 182.387 348.548 180.928C348.108 179.462 347.475 178.351 346.646 177.597C345.826 176.835 344.848 176.454 343.713 176.454C341.998 176.454 340.651 177.299 339.673 178.989C338.696 180.68 338.203 183.112 338.194 186.285C338.194 188.406 338.414 190.2 338.853 191.667C339.3 193.125 339.934 194.231 340.755 194.985C341.575 195.731 342.561 196.104 343.713 196.104Z" fill="white"/>
<path d="M42.397 331V309.182H45.6889V328.166H55.5753V331H42.397ZM66.1275 331.33C64.5153 331.33 63.1268 330.986 61.962 330.297C60.8043 329.601 59.9094 328.624 59.2773 327.367C58.6523 326.103 58.3398 324.622 58.3398 322.925C58.3398 321.249 58.6523 319.771 59.2773 318.493C59.9094 317.214 60.7901 316.217 61.9194 315.499C63.0558 314.782 64.3839 314.423 65.9038 314.423C66.8271 314.423 67.7219 314.576 68.5884 314.881C69.4549 315.187 70.2326 315.666 70.9215 316.32C71.6104 316.973 72.1538 317.822 72.5515 318.866C72.9492 319.903 73.1481 321.163 73.1481 322.648V323.777H60.1403V321.391H70.0266C70.0266 320.553 69.8562 319.81 69.5153 319.164C69.1744 318.511 68.695 317.996 68.0771 317.619C67.4663 317.243 66.7489 317.055 65.9251 317.055C65.0302 317.055 64.2489 317.275 63.5813 317.715C62.9208 318.148 62.4094 318.717 62.0472 319.42C61.6921 320.116 61.5146 320.872 61.5146 321.689V323.553C61.5146 324.647 61.7063 325.577 62.0898 326.344C62.4805 327.112 63.0238 327.697 63.7198 328.102C64.4158 328.5 65.229 328.699 66.1594 328.699C66.7631 328.699 67.3136 328.614 67.8107 328.443C68.3079 328.266 68.7376 328.003 69.0998 327.655C69.462 327.307 69.739 326.877 69.9308 326.366L72.9457 326.909C72.7042 327.797 72.271 328.575 71.646 329.242C71.0281 329.903 70.2504 330.418 69.3129 330.787C68.3825 331.149 67.3207 331.33 66.1275 331.33ZM84.8775 331V309.182H92.8675C94.4158 309.182 95.6978 309.437 96.7134 309.949C97.729 310.453 98.489 311.138 98.9933 312.005C99.4975 312.864 99.7496 313.834 99.7496 314.913C99.7496 315.822 99.5827 316.589 99.2489 317.214C98.9151 317.832 98.4677 318.33 97.9066 318.706C97.3526 319.075 96.7418 319.345 96.0742 319.516V319.729C96.7987 319.764 97.5053 319.999 98.1942 320.432C98.8903 320.858 99.4656 321.465 99.9201 322.254C100.375 323.042 100.602 324.001 100.602 325.13C100.602 326.245 100.339 327.246 99.8136 328.134C99.2951 329.015 98.4925 329.714 97.4059 330.233C96.3192 330.744 94.9308 331 93.2404 331H84.8775ZM88.1694 328.177H92.9208C94.4975 328.177 95.6268 327.871 96.3086 327.261C96.9904 326.65 97.3313 325.886 97.3313 324.97C97.3313 324.281 97.1573 323.649 96.8093 323.074C96.4613 322.499 95.9641 322.04 95.3178 321.7C94.6786 321.359 93.9187 321.188 93.038 321.188H88.1694V328.177ZM88.1694 318.621H92.5799C93.3185 318.621 93.9826 318.479 94.5721 318.195C95.1687 317.911 95.641 317.513 95.989 317.001C96.3441 316.483 96.5217 315.872 96.5217 315.169C96.5217 314.267 96.2056 313.511 95.5735 312.9C94.9414 312.289 93.9719 311.984 92.6651 311.984H88.1694V318.621ZM111.143 331.33C109.609 331.33 108.271 330.979 107.127 330.276C105.984 329.572 105.096 328.589 104.464 327.325C103.832 326.06 103.516 324.583 103.516 322.893C103.516 321.195 103.832 319.711 104.464 318.44C105.096 317.168 105.984 316.181 107.127 315.478C108.271 314.775 109.609 314.423 111.143 314.423C112.678 314.423 114.016 314.775 115.16 315.478C116.303 316.181 117.191 317.168 117.823 318.44C118.455 319.711 118.771 321.195 118.771 322.893C118.771 324.583 118.455 326.06 117.823 327.325C117.191 328.589 116.303 329.572 115.16 330.276C114.016 330.979 112.678 331.33 111.143 331.33ZM111.154 328.656C112.148 328.656 112.972 328.393 113.626 327.868C114.279 327.342 114.762 326.643 115.075 325.769C115.394 324.896 115.554 323.933 115.554 322.882C115.554 321.838 115.394 320.879 115.075 320.006C114.762 319.125 114.279 318.418 113.626 317.886C112.972 317.353 112.148 317.087 111.154 317.087C110.153 317.087 109.322 317.353 108.661 317.886C108.008 318.418 107.521 319.125 107.202 320.006C106.889 320.879 106.733 321.838 106.733 322.882C106.733 323.933 106.889 324.896 107.202 325.769C107.521 326.643 108.008 327.342 108.661 327.868C109.322 328.393 110.153 328.656 111.154 328.656ZM125.512 321.284V331H122.327V314.636H125.384V317.3H125.587C125.963 316.433 126.553 315.737 127.355 315.212C128.165 314.686 129.184 314.423 130.413 314.423C131.528 314.423 132.504 314.658 133.343 315.126C134.181 315.588 134.83 316.277 135.292 317.193C135.754 318.109 135.985 319.242 135.985 320.592V331H132.799V320.975C132.799 319.789 132.49 318.862 131.872 318.195C131.254 317.52 130.406 317.183 129.326 317.183C128.588 317.183 127.931 317.342 127.355 317.662C126.787 317.982 126.336 318.45 126.002 319.068C125.676 319.679 125.512 320.418 125.512 321.284ZM148.452 331V309.182H156.442C157.99 309.182 159.272 309.437 160.288 309.949C161.303 310.453 162.063 311.138 162.567 312.005C163.072 312.864 163.324 313.834 163.324 314.913C163.324 315.822 163.157 316.589 162.823 317.214C162.489 317.832 162.042 318.33 161.481 318.706C160.927 319.075 160.316 319.345 159.648 319.516V319.729C160.373 319.764 161.08 319.999 161.768 320.432C162.464 320.858 163.04 321.465 163.494 322.254C163.949 323.042 164.176 324.001 164.176 325.13C164.176 326.245 163.913 327.246 163.388 328.134C162.869 329.015 162.067 329.714 160.98 330.233C159.893 330.744 158.505 331 156.815 331H148.452ZM151.744 328.177H156.495C158.072 328.177 159.201 327.871 159.883 327.261C160.565 326.65 160.906 325.886 160.906 324.97C160.906 324.281 160.732 323.649 160.384 323.074C160.036 322.499 159.538 322.04 158.892 321.7C158.253 321.359 157.493 321.188 156.612 321.188H151.744V328.177ZM151.744 318.621H156.154C156.893 318.621 157.557 318.479 158.146 318.195C158.743 317.911 159.215 317.513 159.563 317.001C159.918 316.483 160.096 315.872 160.096 315.169C160.096 314.267 159.78 313.511 159.148 312.9C158.516 312.289 157.546 311.984 156.239 311.984H151.744V318.621ZM172.587 331.362C171.55 331.362 170.613 331.17 169.775 330.787C168.936 330.396 168.272 329.832 167.782 329.093C167.299 328.354 167.058 327.449 167.058 326.376C167.058 325.453 167.235 324.693 167.591 324.097C167.946 323.5 168.425 323.028 169.029 322.68C169.632 322.332 170.307 322.069 171.053 321.891C171.799 321.714 172.559 321.579 173.333 321.487C174.313 321.373 175.108 321.281 175.719 321.21C176.33 321.131 176.774 321.007 177.051 320.837C177.328 320.666 177.466 320.389 177.466 320.006V319.931C177.466 319.001 177.203 318.28 176.678 317.768C176.159 317.257 175.385 317.001 174.355 317.001C173.283 317.001 172.438 317.239 171.82 317.715C171.209 318.184 170.787 318.706 170.552 319.281L167.559 318.599C167.914 317.605 168.432 316.803 169.114 316.192C169.803 315.574 170.595 315.126 171.49 314.849C172.385 314.565 173.326 314.423 174.313 314.423C174.966 314.423 175.659 314.501 176.39 314.658C177.129 314.807 177.818 315.084 178.457 315.489C179.103 315.893 179.632 316.472 180.044 317.225C180.456 317.971 180.662 318.94 180.662 320.134V331H177.551V328.763H177.424C177.218 329.175 176.909 329.58 176.497 329.977C176.085 330.375 175.556 330.705 174.909 330.968C174.263 331.231 173.489 331.362 172.587 331.362ZM173.279 328.805C174.16 328.805 174.913 328.631 175.538 328.283C176.17 327.935 176.65 327.481 176.976 326.92C177.31 326.352 177.477 325.744 177.477 325.098V322.989C177.363 323.102 177.143 323.209 176.816 323.308C176.497 323.401 176.131 323.482 175.719 323.553C175.307 323.617 174.906 323.678 174.515 323.734C174.125 323.784 173.798 323.827 173.535 323.862C172.917 323.94 172.353 324.072 171.841 324.256C171.337 324.441 170.932 324.707 170.627 325.055C170.328 325.396 170.179 325.851 170.179 326.419C170.179 327.207 170.471 327.804 171.053 328.209C171.635 328.607 172.377 328.805 173.279 328.805ZM195.271 324.214V314.636H198.467V331H195.335V328.166H195.164C194.788 329.04 194.184 329.768 193.353 330.35C192.529 330.925 191.503 331.213 190.274 331.213C189.223 331.213 188.293 330.982 187.483 330.521C186.681 330.052 186.048 329.359 185.587 328.443C185.132 327.527 184.905 326.394 184.905 325.045V314.636H188.09V324.661C188.09 325.776 188.399 326.664 189.017 327.325C189.635 327.985 190.438 328.315 191.425 328.315C192.021 328.315 192.615 328.166 193.204 327.868C193.801 327.57 194.294 327.119 194.685 326.515C195.083 325.911 195.278 325.144 195.271 324.214ZM202.747 331V314.636H205.804V317.3H206.007C206.348 316.398 206.905 315.695 207.679 315.19C208.453 314.679 209.38 314.423 210.46 314.423C211.554 314.423 212.47 314.679 213.208 315.19C213.954 315.702 214.505 316.405 214.86 317.3H215.03C215.421 316.426 216.042 315.73 216.895 315.212C217.747 314.686 218.762 314.423 219.941 314.423C221.426 314.423 222.637 314.888 223.574 315.819C224.519 316.749 224.991 318.152 224.991 320.027V331H221.806V320.325C221.806 319.217 221.504 318.415 220.9 317.918C220.297 317.42 219.576 317.172 218.738 317.172C217.701 317.172 216.895 317.491 216.319 318.131C215.744 318.763 215.456 319.576 215.456 320.57V331H212.282V320.123C212.282 319.235 212.005 318.521 211.451 317.982C210.897 317.442 210.176 317.172 209.288 317.172C208.684 317.172 208.127 317.332 207.615 317.651C207.111 317.964 206.703 318.401 206.39 318.962C206.085 319.523 205.932 320.173 205.932 320.911V331H202.747ZM234.023 331.362C232.986 331.362 232.048 331.17 231.21 330.787C230.372 330.396 229.708 329.832 229.218 329.093C228.735 328.354 228.493 327.449 228.493 326.376C228.493 325.453 228.671 324.693 229.026 324.097C229.381 323.5 229.861 323.028 230.464 322.68C231.068 322.332 231.743 322.069 232.488 321.891C233.234 321.714 233.994 321.579 234.768 321.487C235.748 321.373 236.544 321.281 237.155 321.21C237.765 321.131 238.209 321.007 238.486 320.837C238.763 320.666 238.902 320.389 238.902 320.006V319.931C238.902 319.001 238.639 318.28 238.113 317.768C237.595 317.257 236.821 317.001 235.791 317.001C234.719 317.001 233.873 317.239 233.256 317.715C232.645 318.184 232.222 318.706 231.988 319.281L228.994 318.599C229.349 317.605 229.868 316.803 230.55 316.192C231.238 315.574 232.03 315.126 232.925 314.849C233.82 314.565 234.761 314.423 235.748 314.423C236.402 314.423 237.094 314.501 237.826 314.658C238.564 314.807 239.253 315.084 239.893 315.489C240.539 315.893 241.068 316.472 241.48 317.225C241.892 317.971 242.098 318.94 242.098 320.134V331H238.987V328.763H238.859C238.653 329.175 238.344 329.58 237.932 329.977C237.52 330.375 236.991 330.705 236.345 330.968C235.699 331.231 234.925 331.362 234.023 331.362ZM234.715 328.805C235.596 328.805 236.349 328.631 236.974 328.283C237.606 327.935 238.085 327.481 238.412 326.92C238.746 326.352 238.912 325.744 238.912 325.098V322.989C238.799 323.102 238.579 323.209 238.252 323.308C237.932 323.401 237.567 323.482 237.155 323.553C236.743 323.617 236.341 323.678 235.951 323.734C235.56 323.784 235.233 323.827 234.971 323.862C234.353 323.94 233.788 324.072 233.277 324.256C232.773 324.441 232.368 324.707 232.062 325.055C231.764 325.396 231.615 325.851 231.615 326.419C231.615 327.207 231.906 327.804 232.488 328.209C233.071 328.607 233.813 328.805 234.715 328.805ZM49.6946 367.362C48.0114 367.355 46.5732 366.911 45.38 366.031C44.1868 365.15 43.2741 363.868 42.642 362.185C42.0099 360.501 41.6939 358.474 41.6939 356.102C41.6939 353.737 42.0099 351.716 42.642 350.04C43.2813 348.364 44.1974 347.085 45.3906 346.205C46.5909 345.324 48.0256 344.884 49.6946 344.884C51.3636 344.884 52.7947 345.327 53.9879 346.215C55.1811 347.096 56.0938 348.374 56.7259 350.05C57.3651 351.719 57.6847 353.737 57.6847 356.102C57.6847 358.481 57.3686 360.512 56.7365 362.195C56.1044 363.871 55.1918 365.153 53.9986 366.041C52.8054 366.922 51.3707 367.362 49.6946 367.362ZM49.6946 364.518C51.1719 364.518 52.326 363.797 53.157 362.355C53.995 360.913 54.4141 358.829 54.4141 356.102C54.4141 354.29 54.2223 352.76 53.8388 351.51C53.4624 350.253 52.919 349.301 52.2088 348.655C51.5057 348.001 50.6676 347.675 49.6946 347.675C48.2244 347.675 47.0703 348.399 46.2322 349.848C45.3942 351.297 44.9716 353.381 44.9645 356.102C44.9645 357.92 45.1527 359.457 45.5291 360.714C45.9126 361.964 46.456 362.913 47.1591 363.559C47.8622 364.198 48.7074 364.518 49.6946 364.518ZM68.7189 344.884C69.6919 344.891 70.6507 345.068 71.5953 345.416C72.54 345.764 73.3922 346.332 74.1522 347.121C74.9192 347.909 75.53 348.974 75.9846 350.317C76.4462 351.652 76.6806 353.314 76.6877 355.303C76.6877 357.213 76.4959 358.914 76.1124 360.406C75.7289 361.89 75.1784 363.143 74.4611 364.166C73.7509 365.189 72.888 365.967 71.8723 366.499C70.8567 367.032 69.7132 367.298 68.4419 367.298C67.1422 367.298 65.9881 367.043 64.9796 366.531C63.9711 366.02 63.1507 365.313 62.5186 364.411C61.8865 363.502 61.4924 362.458 61.3361 361.279H64.5854C64.7985 362.217 65.2317 362.977 65.8851 363.559C66.5456 364.134 67.3979 364.422 68.4419 364.422C70.04 364.422 71.2864 363.726 72.1813 362.334C73.0762 360.935 73.5272 358.982 73.5343 356.474H73.3638C72.9945 357.085 72.5328 357.611 71.9789 358.051C71.432 358.491 70.8176 358.832 70.1358 359.074C69.454 359.315 68.726 359.436 67.9519 359.436C66.6948 359.436 65.5513 359.127 64.5215 358.509C63.4917 357.891 62.6713 357.043 62.0605 355.963C61.4498 354.884 61.1444 353.651 61.1444 352.266C61.1444 350.888 61.4569 349.638 62.0819 348.516C62.714 347.394 63.5946 346.506 64.7239 345.853C65.8603 345.192 67.1919 344.869 68.7189 344.884ZM68.7296 347.653C67.8986 347.653 67.1493 347.859 66.4817 348.271C65.8212 348.676 65.2992 349.227 64.9157 349.923C64.5321 350.612 64.3404 351.379 64.3404 352.224C64.3404 353.069 64.525 353.836 64.8944 354.525C65.2708 355.207 65.7821 355.75 66.4284 356.155C67.0819 356.553 67.8276 356.751 68.6657 356.751C69.2907 356.751 69.873 356.631 70.4128 356.389C70.9526 356.148 71.4249 355.814 71.8297 355.388C72.2346 354.955 72.5506 354.464 72.7779 353.918C73.0051 353.371 73.1188 352.795 73.1188 352.192C73.1188 351.389 72.927 350.643 72.5435 349.955C72.1671 349.266 71.6486 348.712 70.9881 348.293C70.3276 347.866 69.5748 347.653 68.7296 347.653ZM88.8885 344.159L81.8572 370.281H79.0128L86.044 344.159H88.8885ZM91.5518 367V364.614L98.9347 356.964C99.723 356.134 100.373 355.406 100.884 354.781C101.403 354.148 101.79 353.548 102.045 352.98C102.301 352.412 102.429 351.808 102.429 351.169C102.429 350.445 102.259 349.82 101.918 349.294C101.577 348.761 101.112 348.353 100.522 348.069C99.9325 347.778 99.2685 347.632 98.5298 347.632C97.7486 347.632 97.0668 347.792 96.4844 348.112C95.902 348.431 95.4545 348.882 95.142 349.464C94.8295 350.047 94.6733 350.729 94.6733 351.51H91.5305C91.5305 350.182 91.8359 349.021 92.4467 348.026C93.0575 347.032 93.8956 346.261 94.9609 345.714C96.0263 345.161 97.2372 344.884 98.5938 344.884C99.9645 344.884 101.172 345.157 102.216 345.704C103.267 346.244 104.087 346.982 104.677 347.92C105.266 348.85 105.561 349.901 105.561 351.073C105.561 351.883 105.408 352.675 105.103 353.449C104.805 354.223 104.283 355.086 103.537 356.038C102.791 356.982 101.754 358.129 100.426 359.479L96.0902 364.017V364.177H105.913V367H91.5518ZM109.023 362.739V360.075L118.452 345.182H120.55V349.102H119.219L112.475 359.777V359.947H125.398V362.739H109.023ZM119.368 367V361.929L119.389 360.714V345.182H122.511V367H119.368Z" fill="white"/>
<path d="M519.82 378.15C520.502 378.133 521.178 378.283 521.799 378.589C522.345 378.868 522.83 379.272 523.219 379.772V373H524.884V388.779H523.219V387.387C522.827 387.882 522.343 388.281 521.799 388.559C521.178 388.865 520.502 389.016 519.82 388.999C519.168 389.004 518.523 388.866 517.922 388.592C517.346 388.332 516.825 387.948 516.39 387.464C515.95 386.97 515.603 386.387 515.37 385.749C514.877 384.348 514.877 382.8 515.37 381.399C515.603 380.761 515.95 380.178 516.39 379.684C516.825 379.2 517.347 378.816 517.922 378.555C518.523 378.282 519.169 378.145 519.82 378.15ZM520.013 379.838C519.544 379.831 519.079 379.93 518.648 380.128C518.25 380.313 517.892 380.585 517.598 380.928C517.304 381.273 517.076 381.677 516.928 382.117C516.77 382.584 516.691 383.077 516.695 383.574C516.691 384.072 516.772 384.565 516.933 385.031C517.084 385.471 517.313 385.875 517.608 386.22C517.903 386.564 518.261 386.838 518.658 387.025C519.085 387.227 519.547 387.328 520.013 387.322C520.473 387.328 520.929 387.231 521.352 387.037C521.747 386.855 522.104 386.586 522.397 386.248C522.694 385.903 522.924 385.499 523.077 385.059C523.402 384.102 523.402 383.052 523.077 382.095C522.923 381.657 522.692 381.255 522.397 380.911C522.103 380.573 521.747 380.305 521.352 380.123C520.929 379.929 520.473 379.832 520.013 379.838ZM532.291 378.15C532.915 378.143 533.534 378.278 534.107 378.544C534.651 378.799 535.139 379.177 535.538 379.651C535.949 380.149 536.268 380.727 536.477 381.355C536.71 382.057 536.828 382.796 536.827 383.541C536.827 383.659 536.823 383.774 536.816 383.887C536.81 383.999 536.803 384.107 536.796 384.209H529.216C529.264 384.701 529.393 385.18 529.597 385.623C529.776 386.006 530.022 386.348 530.322 386.631C530.613 386.902 530.951 387.107 531.317 387.234C531.697 387.367 532.094 387.434 532.494 387.432C533.043 387.436 533.587 387.324 534.097 387.102C534.597 386.883 535.06 386.576 535.467 386.193L536.35 387.42C536.068 387.707 535.758 387.96 535.426 388.177C535.119 388.376 534.792 388.539 534.452 388.664C534.122 388.784 533.782 388.87 533.437 388.921C533.091 388.972 532.742 388.998 532.392 388.999C531.717 389.007 531.047 388.875 530.418 388.609C529.836 388.362 529.309 387.985 528.871 387.502C528.43 387.011 528.087 386.427 527.861 385.788C527.381 384.363 527.381 382.802 527.861 381.377C528.084 380.739 528.424 380.155 528.861 379.662C529.291 379.184 529.808 378.806 530.378 378.55C530.984 378.279 531.635 378.143 532.291 378.15ZM532.26 379.739C531.865 379.733 531.472 379.809 531.103 379.964C530.769 380.106 530.464 380.318 530.205 380.588C529.946 380.864 529.733 381.186 529.576 381.541C529.406 381.927 529.291 382.339 529.237 382.763H535.132C535.085 382.331 534.977 381.911 534.812 381.515C534.665 381.159 534.459 380.836 534.204 380.561C533.956 380.298 533.663 380.091 533.341 379.953C532.997 379.807 532.63 379.735 532.26 379.739ZM544.499 378.15C545.148 378.144 545.792 378.282 546.39 378.555C546.964 378.818 547.483 379.201 547.916 379.684C548.358 380.179 548.706 380.761 548.942 381.399C549.443 382.798 549.443 384.349 548.942 385.749C548.706 386.387 548.358 386.97 547.916 387.464C547.483 387.947 546.964 388.331 546.39 388.592C545.792 388.866 545.148 389.004 544.499 388.999C543.813 389.016 543.133 388.866 542.509 388.559C541.966 388.283 541.485 387.883 541.098 387.387V388.779H539.444V373H541.098V379.761C541.485 379.265 541.966 378.865 542.509 378.589C543.133 378.282 543.813 378.132 544.499 378.15ZM544.305 379.838C543.845 379.832 543.388 379.929 542.965 380.123C542.57 380.305 542.215 380.573 541.921 380.911C541.626 381.255 541.395 381.657 541.241 382.095C540.915 383.052 540.915 384.102 541.241 385.059C541.394 385.499 541.625 385.903 541.921 386.248C542.214 386.586 542.57 386.855 542.965 387.037C543.388 387.231 543.845 387.328 544.305 387.322C544.773 387.329 545.237 387.228 545.665 387.025C546.06 386.836 546.416 386.562 546.711 386.22C547.004 385.875 547.231 385.471 547.379 385.031C547.537 384.565 547.617 384.071 547.613 383.574C547.617 383.077 547.536 382.583 547.375 382.117C547.223 381.677 546.993 381.274 546.699 380.928C546.406 380.587 546.051 380.314 545.655 380.128C545.229 379.93 544.769 379.831 544.305 379.838ZM552.747 373.427C553.062 373.426 553.365 373.56 553.589 373.8C553.701 373.919 553.788 374.06 553.848 374.217C553.907 374.373 553.937 374.54 553.935 374.709C553.936 374.879 553.905 375.047 553.843 375.203C553.784 375.354 553.697 375.49 553.588 375.604C553.48 375.718 553.351 375.806 553.209 375.866C553.062 375.928 552.905 375.96 552.747 375.958C552.591 375.96 552.436 375.928 552.291 375.866C552.152 375.806 552.026 375.716 551.92 375.603C551.815 375.488 551.731 375.352 551.672 375.203C551.61 375.047 551.579 374.879 551.58 374.709C551.579 374.536 551.61 374.364 551.672 374.205C551.731 374.055 551.816 373.917 551.92 373.8C552.028 373.681 552.157 373.587 552.299 373.523C552.441 373.459 552.593 373.426 552.747 373.427ZM553.589 388.779H551.936V378.369H553.589V388.779ZM563.482 380.002H559.433V385.076C559.426 385.419 559.473 385.762 559.571 386.088C559.65 386.348 559.779 386.585 559.951 386.785C560.111 386.966 560.307 387.104 560.525 387.19C560.757 387.28 561.003 387.325 561.25 387.322C561.606 387.322 561.96 387.255 562.295 387.125C562.621 386.999 562.932 386.83 563.218 386.62L564 387.968C563.606 388.273 563.176 388.52 562.721 388.702C562.205 388.906 561.658 389.007 561.108 388.999C560.632 389.006 560.159 388.926 559.708 388.762C559.31 388.616 558.95 388.37 558.657 388.045C558.357 387.699 558.131 387.286 557.998 386.834C557.836 386.276 557.758 385.693 557.769 385.108V380.002H555.71V378.369H557.769V375.104H559.433V378.369H563.482V380.002Z" fill="white"/>
<path d="M555 292H523V351H555V292Z" fill="#FF5F00"/>
<path d="M525.069 323.5C525.064 317.821 526.316 312.215 528.729 307.107C531.143 301.999 534.655 297.523 539 294.017C533.621 289.669 527.16 286.965 520.357 286.214C513.553 285.463 506.682 286.696 500.528 289.771C494.374 292.847 489.185 297.641 485.555 303.605C481.925 309.569 480 316.464 480 323.5C480 330.536 481.925 337.431 485.555 343.395C489.185 349.359 494.374 354.153 500.528 357.229C506.682 360.304 513.553 361.537 520.357 360.786C527.16 360.035 533.621 357.331 539 352.983C534.655 349.478 531.143 345.001 528.729 339.893C526.316 334.785 525.064 329.179 525.069 323.5Z" fill="#EB001B"/>
<path d="M594.714 345V343.341H595.176V343.003H594V343.341H594.462V345H594.714ZM597 345V343H596.639L596.224 344.376L595.809 343H595.448V345H595.703V343.491L596.091 344.792H596.356L596.745 343.488V345H597Z" fill="#F79E1B"/>
<path d="M561.535 286C553.359 285.987 545.42 288.812 539 294.017C543.341 297.526 546.849 302.003 549.263 307.11C551.676 312.217 552.93 317.821 552.93 323.5C552.93 329.178 551.676 334.782 549.263 339.889C546.849 344.996 543.341 349.473 539 352.982C543.57 356.676 548.932 359.194 554.64 360.324C560.348 361.454 566.236 361.164 571.813 359.479C577.391 357.794 582.496 354.762 586.702 350.636C590.908 346.511 594.095 341.411 595.996 335.761C597.896 330.112 598.456 324.077 597.629 318.16C596.801 312.243 594.609 306.616 591.237 301.747C587.865 296.877 583.41 292.908 578.243 290.169C573.076 287.429 567.348 286 561.535 286Z" fill="#F79E1B"/>
</g>
<defs>
<clipPath id="clip0_0_194">
<rect width="652" height="414" rx="30" fill="white"/>
</clipPath>
</defs>
</svg>
